<svg width="206" height="206" viewBox="0 0 206 206" fill="none" xmlns="http://www.w3.org/2000/svg">
<path d="M103 203C158.228 203 203 158.228 203 103C203 47.7715 158.228 3 103 3C47.7715 3 3 47.7715 3 103C3 158.228 47.7715 203 103 203Z" stroke="url(#paint0_linear)" stroke-width="6"/>
<path fill-rule="evenodd" clip-rule="evenodd" d="M113.796 96.3497C112.109 94.7305 109.866 93.8388 107.48 93.8388C105.094 93.8388 102.852 94.7305 101.165 96.3497C99.7812 97.6778 99.0191 99.4438 99.0191 101.322C99.0191 103.199 99.7802 104.965 101.165 106.293C103.52 108.555 107.352 108.554 109.706 106.293C110.653 105.385 111.174 104.177 111.174 102.892C111.174 101.607 110.653 100.399 109.706 99.4904C108.915 98.7304 107.863 98.3121 106.744 98.3121C105.625 98.3121 104.573 98.7304 103.781 99.4904C102.404 100.812 102.404 102.962 103.781 104.283C104.349 104.828 105.104 105.129 105.906 105.129C106.71 105.129 107.464 104.829 108.031 104.283C108.382 103.947 108.382 103.4 108.031 103.062C107.68 102.726 107.111 102.725 106.76 103.062C106.304 103.499 105.51 103.499 105.054 103.062C104.378 102.414 104.378 101.359 105.054 100.711C105.505 100.277 106.106 100.039 106.744 100.039C107.383 100.039 107.984 100.277 108.435 100.711C109.042 101.293 109.376 102.068 109.376 102.891C109.376 103.715 109.042 104.49 108.435 105.072C106.781 106.66 104.091 106.659 102.437 105.072C101.393 104.07 100.819 102.738 100.819 101.321C100.819 99.9042 101.392 98.5721 102.437 97.5701C103.784 96.2766 105.576 95.5647 107.48 95.5647C109.386 95.5647 111.177 96.2766 112.524 97.5701C114.251 99.2274 115.202 101.431 115.202 103.774C115.202 106.118 114.251 108.321 112.524 109.978C110.309 112.105 107.37 113.273 104.241 113.273H104.173C101.082 113.257 98.1983 112.089 96.0543 109.985C90.9397 104.965 90.359 96.9664 94.7038 91.3799C95.0007 90.9977 94.9189 90.4571 94.5215 90.1715C94.1221 89.8865 93.5595 89.9646 93.2625 90.3469C88.3929 96.6082 89.0393 105.57 94.768 111.192C97.2496 113.629 100.586 114.981 104.163 115H104.241C107.849 115 111.24 113.652 113.796 111.199C115.862 109.216 117 106.579 117 103.774C117 100.97 115.862 98.3326 113.796 96.3497Z" fill="url(#paint1_linear)"/>
<path d="M113.796 96.3497C112.109 94.7305 109.866 93.8388 107.48 93.8388C105.094 93.8388 102.852 94.7305 101.165 96.3497C99.7812 97.6778 99.0191 99.4438 99.0191 101.322C99.0191 103.199 99.7802 104.965 101.165 106.293C103.52 108.555 107.352 108.554 109.706 106.293C110.653 105.385 111.174 104.177 111.174 102.892C111.174 101.607 110.653 100.399 109.706 99.4904C108.915 98.7304 107.863 98.3121 106.744 98.3121C105.625 98.3121 104.573 98.7304 103.781 99.4904C102.404 100.812 102.404 102.962 103.781 104.283C104.349 104.828 105.104 105.129 105.906 105.129C106.71 105.129 107.464 104.829 108.031 104.283C108.382 103.947 108.382 103.4 108.031 103.062C107.68 102.726 107.111 102.725 106.76 103.062C106.304 103.499 105.51 103.499 105.054 103.062C104.378 102.414 104.378 101.359 105.054 100.711C105.505 100.277 106.106 100.039 106.744 100.039C107.383 100.039 107.984 100.277 108.435 100.711C109.042 101.293 109.376 102.068 109.376 102.891C109.376 103.715 109.042 104.49 108.435 105.072C106.781 106.66 104.091 106.659 102.437 105.072C101.393 104.07 100.819 102.738 100.819 101.321C100.819 99.9042 101.392 98.5721 102.437 97.5701C103.784 96.2766 105.576 95.5647 107.48 95.5647C109.386 95.5647 111.177 96.2766 112.524 97.5701C114.251 99.2274 115.202 101.431 115.202 103.774C115.202 106.118 114.251 108.321 112.524 109.978C110.309 112.105 107.37 113.273 104.241 113.273H104.173C101.082 113.257 98.1983 112.089 96.0543 109.985C90.9397 104.965 90.359 96.9664 94.7038 91.3799C95.0007 90.9977 94.9189 90.4571 94.5215 90.1715C94.1221 89.8865 93.5595 89.9646 93.2625 90.3469C88.3929 96.6082 89.0393 105.57 94.768 111.192C97.2496 113.629 100.586 114.981 104.163 115H104.241C107.849 115 111.24 113.652 113.796 111.199C115.862 109.216 117 106.579 117 103.774C117 100.97 115.862 98.3326 113.796 96.3497" stroke="url(#paint2_linear)"/>
<path fill-rule="evenodd" clip-rule="evenodd" d="M70.7007 89.4221H54.2831V87.7682C54.2831 83.2089 57.9661 79.4994 62.4922 79.4994C67.0183 79.4994 70.7007 83.2089 70.7007 87.7682V89.4221ZM55.9254 67.9227C55.9254 64.2744 58.8704 61.3077 62.4922 61.3077C66.1134 61.3077 69.0589 64.2744 69.0589 67.9227C69.0589 71.5711 66.1134 74.5377 62.4922 74.5377C58.8704 74.5377 55.9254 71.5711 55.9254 67.9227ZM73.9839 87.7682C73.9839 82.8268 70.8877 78.6111 66.5534 76.9523C69.9618 75.3896 72.342 71.9349 72.342 67.9227C72.342 62.4504 67.9246 58 62.4922 58C57.0593 58 52.6418 62.4504 52.6418 67.9227C52.6418 71.9349 55.0221 75.3896 58.4305 76.9523C54.0962 78.6111 50.9995 82.8268 50.9995 87.7682V92.7294H73.9839V87.7682Z" fill="url(#paint3_linear)"/>
<path d="M70.7007 89.4221V89.9221H71.2007V89.4221H70.7007ZM54.2831 89.4221H53.7831V89.9221H54.2831V89.4221ZM66.5534 76.9523L66.345 76.4977L65.2631 76.9938L66.3747 77.4192L66.5534 76.9523ZM58.4305 76.9523L58.6092 77.4192L59.7208 76.9938L58.6389 76.4977L58.4305 76.9523ZM50.9995 92.7294H50.4995V93.2294H50.9995V92.7294ZM73.9839 92.7294V93.2294H74.4839V92.7294H73.9839ZM70.7007 88.9221H54.2831V89.9221H70.7007V88.9221ZM54.7831 89.4221V87.7682H53.7831V89.4221H54.7831ZM54.7831 87.7682C54.7831 83.4816 58.2456 79.9994 62.4922 79.9994V78.9994C57.6865 78.9994 53.7831 82.9361 53.7831 87.7682H54.7831ZM62.4922 79.9994C66.7387 79.9994 70.2007 83.4816 70.2007 87.7682H71.2007C71.2007 82.9362 67.2979 78.9994 62.4922 78.9994V79.9994ZM70.2007 87.7682V89.4221H71.2007V87.7682H70.2007ZM56.4254 67.9227C56.4254 64.5471 59.15 61.8077 62.4922 61.8077V60.8077C58.5908 60.8077 55.4254 64.0017 55.4254 67.9227H56.4254ZM62.4922 61.8077C65.8339 61.8077 68.5589 64.5471 68.5589 67.9227H69.5589C69.5589 64.0017 66.393 60.8077 62.4922 60.8077V61.8077ZM68.5589 67.9227C68.5589 71.2984 65.8339 74.0377 62.4922 74.0377V75.0377C66.393 75.0377 69.5589 71.8438 69.5589 67.9227H68.5589ZM62.4922 74.0377C59.15 74.0377 56.4254 71.2984 56.4254 67.9227H55.4254C55.4254 71.8438 58.5908 75.0377 62.4922 75.0377V74.0377ZM74.4839 87.7682C74.4839 82.613 71.2536 78.2157 66.7321 76.4853L66.3747 77.4192C70.5217 79.0064 73.4839 83.0407 73.4839 87.7682H74.4839ZM66.7618 77.4068C70.3414 75.7656 72.842 72.1375 72.842 67.9227H71.842C71.842 71.7324 69.5822 75.0136 66.345 76.4977L66.7618 77.4068ZM72.842 67.9227C72.842 62.1778 68.2042 57.5 62.4922 57.5V58.5C67.645 58.5 71.842 62.7231 71.842 67.9227H72.842ZM62.4922 57.5C56.7797 57.5 52.1418 62.1778 52.1418 67.9227H53.1418C53.1418 62.7231 57.3389 58.5 62.4922 58.5V57.5ZM52.1418 67.9227C52.1418 72.1375 54.6425 75.7656 58.2221 77.4068L58.6389 76.4977C55.4016 75.0136 53.1418 71.7324 53.1418 67.9227H52.1418ZM58.2518 76.4853C53.7303 78.2157 50.4995 82.6129 50.4995 87.7682H51.4995C51.4995 83.0407 54.4621 79.0064 58.6092 77.4192L58.2518 76.4853ZM50.4995 87.7682V92.7294H51.4995V87.7682H50.4995ZM50.9995 93.2294H73.9839V92.2294H50.9995V93.2294ZM74.4839 92.7294V87.7682H73.4839V92.7294H74.4839Z" fill="url(#paint4_linear)"/>
<path fill-rule="evenodd" clip-rule="evenodd" d="M111.714 158.666H95.2859V157C95.2859 152.405 98.9708 148.666 103.5 148.666C108.03 148.666 111.714 152.405 111.714 157V158.666ZM96.9288 137C96.9288 133.323 99.8758 130.333 103.5 130.333C107.124 130.333 110.072 133.323 110.072 137C110.072 140.676 107.124 143.667 103.5 143.667C99.8758 143.667 96.9288 140.676 96.9288 137ZM107.564 146.1C110.975 144.525 113.357 141.043 113.357 137C113.357 131.485 108.936 127 103.5 127C98.0639 127 93.6429 131.485 93.6429 137C93.6429 141.043 96.0253 144.525 99.4355 146.1C95.0983 147.771 92 152.02 92 157V162H115V157C115 152.02 111.902 147.771 107.564 146.1Z" fill="url(#paint5_linear)"/>
<path d="M111.714 158.666V159.166H112.214V158.666H111.714ZM95.2859 158.666H94.7859V159.166H95.2859V158.666ZM99.4355 146.1L99.6153 146.567L100.718 146.142L99.6452 145.646L99.4355 146.1ZM92 162H91.5V162.5H92V162ZM115 162V162.5H115.5V162H115ZM111.714 158.166H95.2859V159.166H111.714V158.166ZM95.7859 158.666V157H94.7859V158.666H95.7859ZM95.7859 157C95.7859 152.674 99.2537 149.166 103.5 149.166V148.166C98.6879 148.166 94.7859 152.136 94.7859 157H95.7859ZM103.5 149.166C107.747 149.166 111.214 152.674 111.214 157H112.214C112.214 152.136 108.313 148.166 103.5 148.166V149.166ZM111.214 157V158.666H112.214V157H111.214ZM97.4288 137C97.4288 133.592 100.159 130.833 103.5 130.833V129.833C99.5928 129.833 96.4288 133.053 96.4288 137H97.4288ZM103.5 130.833C106.841 130.833 109.572 133.592 109.572 137H110.572C110.572 133.053 107.407 129.833 103.5 129.833V130.833ZM109.572 137C109.572 140.407 106.841 143.167 103.5 143.167V144.167C107.407 144.167 110.572 140.946 110.572 137H109.572ZM103.5 143.167C100.159 143.167 97.4288 140.407 97.4288 137H96.4288C96.4288 140.946 99.5928 144.167 103.5 144.167V143.167ZM107.774 146.554C111.356 144.899 113.857 141.244 113.857 137H112.857C112.857 140.842 110.593 144.15 107.355 145.646L107.774 146.554ZM113.857 137C113.857 131.215 109.219 126.5 103.5 126.5V127.5C108.653 127.5 112.857 131.754 112.857 137H113.857ZM103.5 126.5C97.781 126.5 93.1429 131.215 93.1429 137H94.1429C94.1429 131.754 98.3468 127.5 103.5 127.5V126.5ZM93.1429 137C93.1429 141.244 95.6438 144.899 99.2258 146.554L99.6452 145.646C96.4068 144.15 94.1429 140.842 94.1429 137H93.1429ZM99.2558 145.633C94.7302 147.377 91.5 151.808 91.5 157H92.5C92.5 152.231 95.4664 148.165 99.6153 146.567L99.2558 145.633ZM91.5 157V162H92.5V157H91.5ZM92 162.5H115V161.5H92V162.5ZM115.5 162V157H114.5V162H115.5ZM115.5 157C115.5 151.808 112.27 147.377 107.744 145.633L107.385 146.567C111.534 148.165 114.5 152.231 114.5 157H115.5Z" fill="url(#paint6_linear)"/>
<path fill-rule="evenodd" clip-rule="evenodd" d="M151.715 89.667H135.286V88.0002C135.286 83.4053 138.971 79.6669 143.5 79.6669C148.03 79.6669 151.715 83.4053 151.715 88.0002V89.667ZM136.929 68.0001C136.929 64.3233 139.876 61.3335 143.5 61.3335C147.124 61.3335 150.072 64.3233 150.072 68.0001C150.072 71.6769 147.124 74.6666 143.5 74.6666C139.876 74.6666 136.929 71.6769 136.929 68.0001ZM147.564 77.0999C150.975 75.5251 153.357 72.0435 153.357 68.0001C153.357 62.4851 148.937 58 143.5 58C138.064 58 133.643 62.4851 133.643 68.0001C133.643 72.0435 136.025 75.5251 139.436 77.0999C135.099 78.7717 132 83.0203 132 88.0002V93H155V88.0002C155 83.0203 151.902 78.7717 147.564 77.0999Z" fill="url(#paint7_linear)"/>
<path d="M151.715 89.667V90.167H152.215V89.667H151.715ZM135.286 89.667H134.786V90.167H135.286V89.667ZM139.436 77.0999L139.616 77.5665L140.719 77.1414L139.646 76.646L139.436 77.0999ZM132 93H131.5V93.5H132V93ZM155 93V93.5H155.5V93H155ZM151.715 89.167H135.286V90.167H151.715V89.167ZM135.786 89.667V88.0002H134.786V89.667H135.786ZM135.786 88.0002C135.786 83.6747 139.254 80.1669 143.5 80.1669V79.1669C138.688 79.1669 134.786 83.136 134.786 88.0002H135.786ZM143.5 80.1669C147.747 80.1669 151.215 83.6746 151.215 88.0002H152.215C152.215 83.136 148.313 79.1669 143.5 79.1669V80.1669ZM151.215 88.0002V89.667H152.215V88.0002H151.215ZM137.429 68.0001C137.429 64.5926 140.159 61.8335 143.5 61.8335V60.8335C139.593 60.8335 136.429 64.0539 136.429 68.0001H137.429ZM143.5 61.8335C146.841 61.8335 149.572 64.5926 149.572 68.0001H150.572C150.572 64.0539 147.407 60.8335 143.5 60.8335V61.8335ZM149.572 68.0001C149.572 71.4075 146.841 74.1666 143.5 74.1666V75.1666C147.407 75.1666 150.572 71.9462 150.572 68.0001H149.572ZM143.5 74.1666C140.159 74.1666 137.429 71.4076 137.429 68.0001H136.429C136.429 71.9462 139.593 75.1666 143.5 75.1666V74.1666ZM147.774 77.5539C151.357 75.8996 153.857 72.2441 153.857 68.0001H152.857C152.857 71.843 150.594 75.1505 147.355 76.646L147.774 77.5539ZM153.857 68.0001C153.857 62.2158 149.22 57.5 143.5 57.5V58.5C148.654 58.5 152.857 62.7544 152.857 68.0001H153.857ZM143.5 57.5C137.781 57.5 133.143 62.2158 133.143 68.0001H134.143C134.143 62.7544 138.347 58.5 143.5 58.5V57.5ZM133.143 68.0001C133.143 72.2441 135.644 75.8996 139.226 77.5539L139.646 76.646C136.407 75.1505 134.143 71.843 134.143 68.0001H133.143ZM139.256 76.6334C134.731 78.3777 131.5 82.8086 131.5 88.0002H132.5C132.5 83.232 135.467 79.1657 139.616 77.5665L139.256 76.6334ZM131.5 88.0002V93H132.5V88.0002H131.5ZM132 93.5H155V92.5H132V93.5ZM155.5 93V88.0002H154.5V93H155.5ZM155.5 88.0002C155.5 82.8086 152.27 78.3777 147.744 76.6334L147.385 77.5665C151.534 79.1657 154.5 83.232 154.5 88.0002H155.5Z" fill="url(#paint8_linear)"/>
<path fill-rule="evenodd" clip-rule="evenodd" d="M145 98.9009L119.777 136L117 134.099L142.223 97L145 98.9009Z" fill="url(#paint9_linear)" stroke="url(#paint10_linear)"/>
<path fill-rule="evenodd" clip-rule="evenodd" d="M89 134.1L86.2216 136L61 98.9002L63.7789 97L89 134.1Z" fill="url(#paint11_linear)" stroke="url(#paint12_linear)"/>
<path fill-rule="evenodd" clip-rule="evenodd" d="M80 65H127V62H80V65Z" fill="url(#paint13_linear)" stroke="url(#paint14_linear)"/>
<path fill-rule="evenodd" clip-rule="evenodd" d="M102 82H105V75H102V82Z" fill="url(#paint15_linear)" stroke="url(#paint16_linear)"/>
<path fill-rule="evenodd" clip-rule="evenodd" d="M95 83.4324L92.2147 85L89 79.5676L91.7848 78L95 83.4324Z" fill="url(#paint17_linear)" stroke="url(#paint18_linear)"/>
<path fill-rule="evenodd" clip-rule="evenodd" d="M88 89.215L86.4324 92L81 88.785L82.5681 86L88 89.215Z" fill="url(#paint19_linear)" stroke="url(#paint20_linear)"/>
<path fill-rule="evenodd" clip-rule="evenodd" d="M78 102H85V99H78V102Z" fill="url(#paint21_linear)" stroke="url(#paint22_linear)"/>
<path fill-rule="evenodd" clip-rule="evenodd" d="M88 110.785L82.5681 114L81 111.215L86.4324 108L88 110.785Z" fill="url(#paint23_linear)" stroke="url(#paint24_linear)"/>
<path fill-rule="evenodd" clip-rule="evenodd" d="M126 111.215L124.432 114L119 110.785L120.568 108L126 111.215Z" fill="url(#paint25_linear)" stroke="url(#paint26_linear)"/>
<path fill-rule="evenodd" clip-rule="evenodd" d="M117 79.5682L113.785 85L111 83.4318L114.215 78L117 79.5682Z" fill="url(#paint27_linear)" stroke="url(#paint28_linear)"/>
<path fill-rule="evenodd" clip-rule="evenodd" d="M122 102H129V99H122V102Z" fill="url(#paint29_linear)" stroke="url(#paint30_linear)"/>
<path fill-rule="evenodd" clip-rule="evenodd" d="M126 88.7853L120.568 92L119 89.2152L124.432 86L126 88.7853Z" fill="url(#paint31_linear)" stroke="url(#paint32_linear)"/>
<defs>
<linearGradient id="paint0_linear" x1="105.933" y1="294.268" x2="297.24" y2="101.048" gradientUnits="userSpaceOnUse">
<stop stop-color="#206DB3"/>
<stop stop-color="#2269B3"/>
<stop offset="1" stop-color="#853C92"/>
</linearGradient>
<linearGradient id="paint1_linear" x1="103.896" y1="126.409" x2="127.72" y2="100.421" gradientUnits="userSpaceOnUse">
<stop stop-color="#206DB3"/>
<stop stop-color="#2269B3"/>
<stop offset="1" stop-color="#853C92"/>
</linearGradient>
<linearGradient id="paint2_linear" x1="103.896" y1="126.409" x2="127.72" y2="100.421" gradientUnits="userSpaceOnUse">
<stop stop-color="#206DB3"/>
<stop stop-color="#2269B3"/>
<stop offset="1" stop-color="#853C92"/>
</linearGradient>
<linearGradient id="paint3_linear" x1="62.8287" y1="108.578" x2="93.5259" y2="88.0589" gradientUnits="userSpaceOnUse">
<stop stop-color="#206DB3"/>
<stop stop-color="#2269B3"/>
<stop offset="1" stop-color="#853C92"/>
</linearGradient>
<linearGradient id="paint4_linear" x1="62.8287" y1="108.578" x2="93.5259" y2="88.0589" gradientUnits="userSpaceOnUse">
<stop stop-color="#206DB3"/>
<stop stop-color="#2269B3"/>
<stop offset="1" stop-color="#853C92"/>
</linearGradient>
<linearGradient id="paint5_linear" x1="103.837" y1="177.972" x2="134.689" y2="157.495" gradientUnits="userSpaceOnUse">
<stop stop-color="#206DB3"/>
<stop stop-color="#2269B3"/>
<stop offset="1" stop-color="#853C92"/>
</linearGradient>
<linearGradient id="paint6_linear" x1="103.837" y1="177.972" x2="134.689" y2="157.495" gradientUnits="userSpaceOnUse">
<stop stop-color="#206DB3"/>
<stop stop-color="#2269B3"/>
<stop offset="1" stop-color="#853C92"/>
</linearGradient>
<linearGradient id="paint7_linear" x1="143.837" y1="108.972" x2="174.689" y2="88.495" gradientUnits="userSpaceOnUse">
<stop stop-color="#206DB3"/>
<stop stop-color="#2269B3"/>
<stop offset="1" stop-color="#853C92"/>
</linearGradient>
<linearGradient id="paint8_linear" x1="143.837" y1="108.972" x2="174.689" y2="88.495" gradientUnits="userSpaceOnUse">
<stop stop-color="#206DB3"/>
<stop stop-color="#2269B3"/>
<stop offset="1" stop-color="#853C92"/>
</linearGradient>
<linearGradient id="paint9_linear" x1="131.411" y1="153.797" x2="166.87" y2="128.085" gradientUnits="userSpaceOnUse">
<stop stop-color="#206DB3"/>
<stop stop-color="#2269B3"/>
<stop offset="1" stop-color="#853C92"/>
</linearGradient>
<linearGradient id="paint10_linear" x1="131.411" y1="153.797" x2="166.87" y2="128.085" gradientUnits="userSpaceOnUse">
<stop stop-color="#206DB3"/>
<stop stop-color="#2269B3"/>
<stop offset="1" stop-color="#853C92"/>
</linearGradient>
<linearGradient id="paint11_linear" x1="75.4106" y1="153.797" x2="110.87" y2="128.085" gradientUnits="userSpaceOnUse">
<stop stop-color="#206DB3"/>
<stop stop-color="#2269B3"/>
<stop offset="1" stop-color="#853C92"/>
</linearGradient>
<linearGradient id="paint12_linear" x1="75.4106" y1="153.797" x2="110.87" y2="128.085" gradientUnits="userSpaceOnUse">
<stop stop-color="#206DB3"/>
<stop stop-color="#2269B3"/>
<stop offset="1" stop-color="#853C92"/>
</linearGradient>
<linearGradient id="paint13_linear" x1="104.189" y1="66.369" x2="104.55" y2="60.6523" gradientUnits="userSpaceOnUse">
<stop stop-color="#206DB3"/>
<stop stop-color="#2269B3"/>
<stop offset="1" stop-color="#853C92"/>
</linearGradient>
<linearGradient id="paint14_linear" x1="104.189" y1="66.369" x2="104.55" y2="60.6523" gradientUnits="userSpaceOnUse">
<stop stop-color="#206DB3"/>
<stop stop-color="#2269B3"/>
<stop offset="1" stop-color="#853C92"/>
</linearGradient>
<linearGradient id="paint15_linear" x1="103.544" y1="85.1944" x2="108.426" y2="83.0811" gradientUnits="userSpaceOnUse">
<stop stop-color="#206DB3"/>
<stop stop-color="#2269B3"/>
<stop offset="1" stop-color="#853C92"/>
</linearGradient>
<linearGradient id="paint16_linear" x1="103.544" y1="85.1944" x2="108.426" y2="83.0811" gradientUnits="userSpaceOnUse">
<stop stop-color="#206DB3"/>
<stop stop-color="#2269B3"/>
<stop offset="1" stop-color="#853C92"/>
</linearGradient>
<linearGradient id="paint17_linear" x1="92.088" y1="88.1944" x2="98.715" y2="82.4572" gradientUnits="userSpaceOnUse">
<stop stop-color="#206DB3"/>
<stop stop-color="#2269B3"/>
<stop offset="1" stop-color="#853C92"/>
</linearGradient>
<linearGradient id="paint18_linear" x1="92.088" y1="88.1944" x2="98.715" y2="82.4572" gradientUnits="userSpaceOnUse">
<stop stop-color="#206DB3"/>
<stop stop-color="#2269B3"/>
<stop offset="1" stop-color="#853C92"/>
</linearGradient>
<linearGradient id="paint19_linear" x1="84.6026" y1="94.738" x2="90.2657" y2="88.065" gradientUnits="userSpaceOnUse">
<stop stop-color="#206DB3"/>
<stop stop-color="#2269B3"/>
<stop offset="1" stop-color="#853C92"/>
</linearGradient>
<linearGradient id="paint20_linear" x1="84.6026" y1="94.738" x2="90.2657" y2="88.065" gradientUnits="userSpaceOnUse">
<stop stop-color="#206DB3"/>
<stop stop-color="#2269B3"/>
<stop offset="1" stop-color="#853C92"/>
</linearGradient>
<linearGradient id="paint21_linear" x1="81.6026" y1="103.369" x2="83.6665" y2="98.5053" gradientUnits="userSpaceOnUse">
<stop stop-color="#206DB3"/>
<stop stop-color="#2269B3"/>
<stop offset="1" stop-color="#853C92"/>
</linearGradient>
<linearGradient id="paint22_linear" x1="81.6026" y1="103.369" x2="83.6665" y2="98.5053" gradientUnits="userSpaceOnUse">
<stop stop-color="#206DB3"/>
<stop stop-color="#2269B3"/>
<stop offset="1" stop-color="#853C92"/>
</linearGradient>
<linearGradient id="paint23_linear" x1="84.6026" y1="116.738" x2="90.2657" y2="110.065" gradientUnits="userSpaceOnUse">
<stop stop-color="#206DB3"/>
<stop stop-color="#2269B3"/>
<stop offset="1" stop-color="#853C92"/>
</linearGradient>
<linearGradient id="paint24_linear" x1="84.6026" y1="116.738" x2="90.2657" y2="110.065" gradientUnits="userSpaceOnUse">
<stop stop-color="#206DB3"/>
<stop stop-color="#2269B3"/>
<stop offset="1" stop-color="#853C92"/>
</linearGradient>
<linearGradient id="paint25_linear" x1="122.603" y1="116.738" x2="128.266" y2="110.065" gradientUnits="userSpaceOnUse">
<stop stop-color="#206DB3"/>
<stop stop-color="#2269B3"/>
<stop offset="1" stop-color="#853C92"/>
</linearGradient>
<linearGradient id="paint26_linear" x1="122.603" y1="116.738" x2="128.266" y2="110.065" gradientUnits="userSpaceOnUse">
<stop stop-color="#206DB3"/>
<stop stop-color="#2269B3"/>
<stop offset="1" stop-color="#853C92"/>
</linearGradient>
<linearGradient id="paint27_linear" x1="114.088" y1="88.1944" x2="120.715" y2="82.4572" gradientUnits="userSpaceOnUse">
<stop stop-color="#206DB3"/>
<stop stop-color="#2269B3"/>
<stop offset="1" stop-color="#853C92"/>
</linearGradient>
<linearGradient id="paint28_linear" x1="114.088" y1="88.1944" x2="120.715" y2="82.4572" gradientUnits="userSpaceOnUse">
<stop stop-color="#206DB3"/>
<stop stop-color="#2269B3"/>
<stop offset="1" stop-color="#853C92"/>
</linearGradient>
<linearGradient id="paint29_linear" x1="125.603" y1="103.369" x2="127.666" y2="98.5053" gradientUnits="userSpaceOnUse">
<stop stop-color="#206DB3"/>
<stop stop-color="#2269B3"/>
<stop offset="1" stop-color="#853C92"/>
</linearGradient>
<linearGradient id="paint30_linear" x1="125.603" y1="103.369" x2="127.666" y2="98.5053" gradientUnits="userSpaceOnUse">
<stop stop-color="#206DB3"/>
<stop stop-color="#2269B3"/>
<stop offset="1" stop-color="#853C92"/>
</linearGradient>
<linearGradient id="paint31_linear" x1="122.603" y1="94.738" x2="128.266" y2="88.065" gradientUnits="userSpaceOnUse">
<stop stop-color="#206DB3"/>
<stop stop-color="#2269B3"/>
<stop offset="1" stop-color="#853C92"/>
</linearGradient>
<linearGradient id="paint32_linear" x1="122.603" y1="94.738" x2="128.266" y2="88.065" gradientUnits="userSpaceOnUse">
<stop stop-color="#206DB3"/>
<stop stop-color="#2269B3"/>
<stop offset="1" stop-color="#853C92"/>
</linearGradient>
</defs>
</svg>
