<svg width="206" height="206" viewBox="0 0 206 206" fill="none" xmlns="http://www.w3.org/2000/svg">
<path d="M103 203C158.228 203 203 158.228 203 103C203 47.7715 158.228 3 103 3C47.7715 3 3 47.7715 3 103C3 158.228 47.7715 203 103 203Z" stroke="url(#paint0_linear)" stroke-width="6"/>
<path fill-rule="evenodd" clip-rule="evenodd" d="M146.603 135.673L112.355 149.943H90.2032L67.5161 146.919V128.976H80.4194L107.973 121.089C109.918 120.526 111.958 121.652 112.527 123.59C113.04 125.34 112.218 127.177 110.566 127.956L91.0194 137.195L92.3984 140.113L111.945 130.874C112.982 130.384 113.827 129.656 114.479 128.802L144.098 125.792C145.563 125.638 146.977 126.105 148.073 127.093C149.171 128.082 149.774 129.44 149.774 130.916C149.774 133.003 148.531 134.869 146.603 135.673ZM56.2258 148.331H64.2903V125.75H56.2258V148.331ZM82.1677 82.3693C86.9968 83.1225 90.821 86.9465 91.5742 91.7756C86.7452 91.0225 82.921 87.1981 82.1677 82.3693ZM123.832 90.4338C123.079 95.2627 119.255 99.087 114.426 99.8401C115.179 95.0096 119.003 91.1854 123.832 90.4338ZM150.237 124.7C148.481 123.116 146.145 122.345 143.773 122.582L115.845 125.421C115.947 124.526 115.892 123.6 115.623 122.684C114.553 119.045 110.715 116.942 107.077 117.992L104.613 118.702V108.903L113.206 103.174C120.965 102.893 127.194 96.5112 127.194 88.6852V87.0723H125.581C117.877 87.0723 111.576 93.108 111.11 100.695L104.613 105.026V80.6207H101.387V96.9629L94.8903 92.6322C94.4242 85.0419 88.1226 79.0078 80.4194 79.0078H78.8065V80.6207C78.8065 88.4467 85.0355 94.829 92.7935 95.1096L101.387 100.839V119.632L80.1903 125.75H67.5161V122.524H53V151.556H67.5161V150.173L89.8839 153.155L113 153.169L147.845 138.65C150.976 137.343 153 134.31 153 130.916C153 128.55 151.994 126.284 150.237 124.7Z" fill="url(#paint1_linear)"/>
<path fill-rule="evenodd" clip-rule="evenodd" d="M103 82.2339C94.9952 82.2339 88.4839 75.7226 88.4839 67.7178C88.4839 59.7132 94.9952 53.2017 103 53.2017C111.005 53.2017 117.516 59.7132 117.516 67.7178C117.516 75.7226 111.005 82.2339 103 82.2339Z" fill="url(#paint2_linear)"/>
<path fill-rule="evenodd" clip-rule="evenodd" d="M104.613 72.5564H101.387C100.497 72.5564 99.7741 71.8338 99.7741 70.9435H96.5483C96.5483 73.6113 98.7193 75.7822 101.387 75.7822V77.3951H104.613V75.7822C107.281 75.7822 109.452 73.6113 109.452 70.9435C109.452 68.276 107.281 66.1048 104.613 66.1048H101.387C100.497 66.1048 99.7741 65.3822 99.7741 64.4919C99.7741 63.6016 100.497 62.879 101.387 62.879H104.613C105.503 62.879 106.226 63.6016 106.226 64.4919H109.452C109.452 61.8244 107.281 59.6532 104.613 59.6532V58.0403H101.387V59.6532C98.7193 59.6532 96.5483 61.8244 96.5483 64.4919C96.5483 67.1596 98.7193 69.3306 101.387 69.3306H104.613C105.503 69.3306 106.226 70.0532 106.226 70.9435C106.226 71.8338 105.503 72.5564 104.613 72.5564Z" fill="white"/>
<path fill-rule="evenodd" clip-rule="evenodd" d="M141.709 69.3305V72.5563H144.935V75.7822H148.161V72.5563H151.387V69.3305H148.161V66.1047H144.935V69.3305H141.709Z" fill="url(#paint3_linear)"/>
<path fill-rule="evenodd" clip-rule="evenodd" d="M133.645 67.7177H136.871V62.879H141.71V59.6532H136.871V54.8145H133.645V59.6532H128.807V62.879H133.645V67.7177Z" fill="url(#paint4_linear)"/>
<path fill-rule="evenodd" clip-rule="evenodd" d="M138.484 85.4596V82.2338H141.71V79.008H138.484V75.7822H135.258V79.008H132.032V82.2338H135.258V85.4596H138.484Z" fill="url(#paint5_linear)"/>
<path fill-rule="evenodd" clip-rule="evenodd" d="M70.7419 72.5563H73.9677V69.3305H77.1935V66.1047H73.9677V62.8789H70.7419V66.1047H67.5161V69.3305H70.7419V72.5563Z" fill="url(#paint6_linear)"/>
<path fill-rule="evenodd" clip-rule="evenodd" d="M59.4515 85.4596H62.6773V80.6209H67.516V77.3951H62.6773V72.5564H59.4515V77.3951H54.6128V80.6209H59.4515V85.4596Z" fill="url(#paint7_linear)"/>
<defs>
<linearGradient id="paint0_linear" x1="105.933" y1="294.268" x2="297.24" y2="101.048" gradientUnits="userSpaceOnUse">
<stop stop-color="#206DB3"/>
<stop stop-color="#2269B3"/>
<stop offset="1" stop-color="#853C92"/>
</linearGradient>
<linearGradient id="paint1_linear" x1="104.466" y1="187.012" x2="172.153" y2="94.8296" gradientUnits="userSpaceOnUse">
<stop stop-color="#206DB3"/>
<stop stop-color="#2269B3"/>
<stop offset="1" stop-color="#853C92"/>
</linearGradient>
<linearGradient id="paint2_linear" x1="103.426" y1="95.4825" x2="131.196" y2="67.4344" gradientUnits="userSpaceOnUse">
<stop stop-color="#206DB3"/>
<stop stop-color="#2269B3"/>
<stop offset="1" stop-color="#853C92"/>
</linearGradient>
<linearGradient id="paint3_linear" x1="146.69" y1="80.1984" x2="155.947" y2="70.849" gradientUnits="userSpaceOnUse">
<stop stop-color="#206DB3"/>
<stop stop-color="#2269B3"/>
<stop offset="1" stop-color="#853C92"/>
</linearGradient>
<linearGradient id="paint4_linear" x1="135.447" y1="73.606" x2="147.79" y2="61.1401" gradientUnits="userSpaceOnUse">
<stop stop-color="#206DB3"/>
<stop stop-color="#2269B3"/>
<stop offset="1" stop-color="#853C92"/>
</linearGradient>
<linearGradient id="paint5_linear" x1="137.013" y1="89.8759" x2="146.27" y2="80.5265" gradientUnits="userSpaceOnUse">
<stop stop-color="#206DB3"/>
<stop stop-color="#2269B3"/>
<stop offset="1" stop-color="#853C92"/>
</linearGradient>
<linearGradient id="paint6_linear" x1="72.4967" y1="76.9725" x2="81.7535" y2="67.6231" gradientUnits="userSpaceOnUse">
<stop stop-color="#206DB3"/>
<stop stop-color="#2269B3"/>
<stop offset="1" stop-color="#853C92"/>
</linearGradient>
<linearGradient id="paint7_linear" x1="61.2536" y1="91.3479" x2="73.596" y2="78.8821" gradientUnits="userSpaceOnUse">
<stop stop-color="#206DB3"/>
<stop stop-color="#2269B3"/>
<stop offset="1" stop-color="#853C92"/>
</linearGradient>
</defs>
</svg>
