<svg width="206" height="206" viewBox="0 0 206 206" fill="none" xmlns="http://www.w3.org/2000/svg">
<path d="M103 203C158.228 203 203 158.228 203 103C203 47.7715 158.228 3 103 3C47.7715 3 3 47.7715 3 103C3 158.228 47.7715 203 103 203Z" stroke="url(#paint0_linear)" stroke-width="6"/>
<path fill-rule="evenodd" clip-rule="evenodd" d="M85.5745 76.1388C82.8937 78.7931 81.6151 82.48 82.1015 86.1536C82.7317 90.6224 85.4419 94.6165 89.7346 97.4055L89.8246 97.4648C94.2293 100.239 99.5033 101.439 104.731 100.856C117.05 99.5691 126.621 90.9556 127 80.8267C126.981 80.5011 126.826 80.1966 126.571 79.982C126.316 79.7673 125.982 79.6605 125.645 79.6855C124.943 79.6131 124.31 80.0967 124.223 80.7719C123.911 89.8099 115.373 97.4922 104.361 98.6425C99.8597 99.1382 95.3201 98.0997 91.5304 95.7074L91.4498 95.6572C87.7304 93.238 85.3803 89.778 84.8164 85.9026C84.4115 82.8269 85.4883 79.7416 87.7399 77.5265C90.1909 75.0747 93.4861 73.5685 97.0076 73.2905C99.8074 73.0009 102.625 73.6576 104.977 75.1483C107.143 76.4759 108.611 78.6382 109.005 81.0823C109.246 82.9462 108.59 84.8141 107.223 86.1536C105.741 87.6366 103.748 88.5472 101.618 88.7144C98.0974 89.0476 94.8944 86.9707 94.487 84.0767C94.3426 82.9962 94.7196 81.9114 95.5104 81.1325C96.371 80.271 97.5285 79.7418 98.7655 79.6444C99.704 79.5473 100.648 79.7667 101.438 80.2652C102.163 80.7121 102.654 81.4365 102.788 82.2554C102.954 83.4377 101.921 84.5104 100.481 84.6473C99.5331 84.7386 98.5854 84.1269 98.4528 83.3281C98.2947 82.6693 97.6345 82.2406 96.9413 82.3467C96.609 82.3512 96.2929 82.4863 96.0666 82.7207C95.8402 82.9552 95.7231 83.2686 95.7426 83.5883C95.9059 84.6192 96.5246 85.5314 97.4388 86.0897C98.4284 86.7189 99.6145 86.9965 100.793 86.8749C103.726 86.5918 105.84 84.4099 105.498 81.9998C105.27 80.5616 104.406 79.2893 103.129 78.5124C101.751 77.6328 100.096 77.2467 98.4528 77.4215C96.5178 77.5766 94.709 78.4097 93.3688 79.7631C92.148 80.9739 91.5625 82.6525 91.7767 84.3278C92.3595 88.436 96.9129 91.4167 101.954 90.9374C104.774 90.7074 107.409 89.4932 109.365 87.523C111.162 85.7453 112.019 83.2745 111.691 80.813C111.274 77.8597 109.483 75.2213 106.645 73.3772C103.697 71.5223 100.171 70.7137 96.6712 71.0903C92.4575 71.4147 88.5116 73.2099 85.5745 76.1388Z" fill="url(#paint1_linear)" stroke="url(#paint2_linear)"/>
<path d="M129.141 149.991V136.219C129.19 134.437 130.16 132.798 131.723 131.857C143.466 124.237 151.01 112.403 151 99.1148V93.1214C151 73.3281 131.718 57.2544 107.811 57.0034C86.979 56.7662 68.6764 69.1202 64.3574 85.9192C63.3876 89.6921 63.1854 93.6118 63.7624 97.4595C63.9302 98.641 63.6432 99.8409 62.9562 100.83L55.8587 111.287C53.6705 114.514 55.8587 118.569 60.2209 119.392V119.392C63.2729 119.968 65.4372 122.209 65.4372 124.79V135.205C65.4372 138.264 68.4412 140.743 72.1555 140.743H78.6291C82.3338 140.743 85.3474 143.221 85.3474 146.28V150" stroke="url(#paint3_linear)" stroke-width="5"/>
<path fill-rule="evenodd" clip-rule="evenodd" d="M126.002 74L122 81H130L126.002 74Z" fill="url(#paint4_linear)"/>
<defs>
<linearGradient id="paint0_linear" x1="105.933" y1="294.268" x2="297.24" y2="101.048" gradientUnits="userSpaceOnUse">
<stop stop-color="#206DB3"/>
<stop stop-color="#2269B3"/>
<stop offset="1" stop-color="#853C92"/>
</linearGradient>
<linearGradient id="paint1_linear" x1="105.16" y1="114.69" x2="131.548" y2="74.7128" gradientUnits="userSpaceOnUse">
<stop stop-color="#206DB3"/>
<stop stop-color="#2269B3"/>
<stop offset="1" stop-color="#853C92"/>
</linearGradient>
<linearGradient id="paint2_linear" x1="105.16" y1="114.69" x2="131.548" y2="74.7128" gradientUnits="userSpaceOnUse">
<stop stop-color="#206DB3"/>
<stop stop-color="#2269B3"/>
<stop offset="1" stop-color="#853C92"/>
</linearGradient>
<linearGradient id="paint3_linear" x1="104.408" y1="192.44" x2="193.293" y2="99.7699" gradientUnits="userSpaceOnUse">
<stop stop-color="#206DB3"/>
<stop stop-color="#2269B3"/>
<stop offset="1" stop-color="#853C92"/>
</linearGradient>
<linearGradient id="paint4_linear" x1="126.117" y1="84.1944" x2="132.745" y2="76.5441" gradientUnits="userSpaceOnUse">
<stop stop-color="#206DB3"/>
<stop stop-color="#2269B3"/>
<stop offset="1" stop-color="#853C92"/>
</linearGradient>
</defs>
</svg>
