<svg width="206" height="206" viewBox="0 0 206 206" fill="none" xmlns="http://www.w3.org/2000/svg">
<path d="M103 203C158.228 203 203 158.228 203 103C203 47.7715 158.228 3 103 3C47.7715 3 3 47.7715 3 103C3 158.228 47.7715 203 103 203Z" stroke="url(#paint0_linear)" stroke-width="6"/>
<g clip-path="url(#clip0)">
<rect width="73" height="73" transform="translate(67 63)" fill="url(#paint1_linear)"/>
<rect width="73" height="73" transform="translate(67 63)" fill="url(#paint2_linear)"/>
<path d="M136.851 112.628C138.348 110.72 139.065 108.675 138.973 106.568C138.882 104.248 137.844 102.431 136.989 101.317C137.981 98.8436 138.363 94.9509 135.05 91.9283C132.623 89.7148 128.501 88.7225 122.792 88.9973C118.777 89.1805 115.419 89.9285 115.281 89.959H115.266C114.503 90.0964 113.694 90.2643 112.869 90.4475C112.808 89.4705 112.976 87.0433 114.777 81.5782C116.915 75.0751 116.793 70.0985 114.381 66.7706C111.846 63.2748 107.801 63 106.61 63C105.465 63 104.412 63.4732 103.664 64.3434C101.97 66.3126 102.168 69.9458 102.382 71.6251C100.367 77.0291 94.7185 90.2796 89.9404 93.9586C89.8488 94.0197 89.7724 94.096 89.6961 94.1723C88.2917 95.6531 87.3452 97.256 86.7041 98.6604C85.8034 98.1719 84.7806 97.8971 83.6815 97.8971H74.3695C70.8584 97.8971 68.019 100.752 68.019 104.248V129.054C68.019 132.565 70.8736 135.405 74.3695 135.405H83.6815C85.0401 135.405 86.3071 134.977 87.3452 134.244L90.9326 134.672C91.4822 134.748 101.252 135.985 111.282 135.786C113.098 135.924 114.808 136 116.396 136C119.128 136 121.51 135.786 123.494 135.359C128.165 134.367 131.356 132.382 132.974 129.466C134.211 127.238 134.211 125.024 134.012 123.62C137.05 120.872 137.584 117.834 137.477 115.697C137.416 114.46 137.142 113.407 136.851 112.628ZM74.3695 131.283C73.133 131.283 72.1407 130.275 72.1407 129.054V104.232C72.1407 102.996 73.1482 102.004 74.3695 102.004H83.6815C84.918 102.004 85.9102 103.011 85.9102 104.232V129.039C85.9102 130.275 84.9027 131.268 83.6815 131.268H74.3695V131.283ZM132.943 110.842C132.302 111.514 132.18 112.537 132.669 113.331C132.669 113.346 133.295 114.414 133.371 115.88C133.478 117.88 132.516 119.651 130.501 121.162C129.784 121.711 129.493 122.658 129.799 123.513C129.799 123.528 130.455 125.543 129.387 127.451C128.364 129.283 126.089 130.596 122.639 131.329C119.876 131.924 116.121 132.031 111.511 131.665C111.45 131.665 111.373 131.665 111.297 131.665C101.481 131.878 91.5585 130.596 91.4516 130.581H91.4364L89.8946 130.398C89.9862 129.97 90.0319 129.512 90.0319 129.054V104.232C90.0319 103.576 89.9251 102.935 89.7419 102.339C90.0167 101.317 90.78 99.042 92.5813 97.1033C99.4355 91.6688 106.137 73.3348 106.427 72.541C106.549 72.2204 106.58 71.8693 106.519 71.5182C106.259 69.8084 106.351 67.7171 106.717 67.0912C107.526 67.1064 109.709 67.3354 111.022 69.152C112.579 71.3045 112.518 75.1514 110.839 80.2501C108.274 88.0203 108.061 92.1115 110.091 93.9128C111.098 94.8135 112.442 94.8593 113.419 94.5082C114.35 94.2944 115.235 94.1112 116.075 93.9739C116.136 93.9586 116.212 93.9433 116.273 93.9281C120.96 92.9053 129.356 92.2794 132.272 94.9356C134.745 97.1949 132.989 100.187 132.791 100.508C132.226 101.362 132.394 102.477 133.157 103.164C133.172 103.179 134.775 104.69 134.852 106.721C134.913 108.079 134.272 109.468 132.943 110.842Z" fill="url(#paint3_linear)"/>
</g>
<defs>
<linearGradient id="paint0_linear" x1="105.933" y1="294.268" x2="297.24" y2="101.048" gradientUnits="userSpaceOnUse">
<stop stop-color="#206DB3"/>
<stop stop-color="#2269B3"/>
<stop offset="1" stop-color="#853C92"/>
</linearGradient>
<linearGradient id="paint1_linear" x1="36.5" y1="0" x2="36.5" y2="73" gradientUnits="userSpaceOnUse">
<stop stop-color="white"/>
<stop offset="1" stop-color="white" stop-opacity="0"/>
</linearGradient>
<linearGradient id="paint2_linear" x1="36.5" y1="0" x2="36.5" y2="73" gradientUnits="userSpaceOnUse">
<stop stop-color="white"/>
<stop offset="1" stop-color="white" stop-opacity="0"/>
</linearGradient>
<linearGradient id="paint3_linear" x1="103.5" y1="63" x2="103.5" y2="136" gradientUnits="userSpaceOnUse">
<stop stop-color="#853C92"/>
<stop offset="1" stop-color="#2269B3"/>
</linearGradient>
<clipPath id="clip0">
<rect width="73" height="73" fill="white" transform="translate(67 63)"/>
</clipPath>
</defs>
</svg>
