<svg width="206" height="206" viewBox="0 0 206 206" fill="none" xmlns="http://www.w3.org/2000/svg">
<path d="M103 203C158.228 203 203 158.228 203 103C203 47.7715 158.228 3 103 3C47.7715 3 3 47.7715 3 103C3 158.228 47.7715 203 103 203Z" stroke="url(#paint0_linear)" stroke-width="6"/>
<g clip-path="url(#clip0)">
<path d="M108.772 100.516C108.999 100.96 109.451 101.217 109.918 101.217C110.113 101.217 110.313 101.172 110.499 101.077C110.575 101.039 118.129 97.2013 121.854 96.0245C122.529 95.8102 122.904 95.089 122.69 94.414C122.476 93.7389 121.76 93.3629 121.079 93.576C117.155 94.817 109.652 98.6285 109.334 98.7902C108.703 99.111 108.451 99.8837 108.772 100.516Z" fill="url(#paint1_linear)"/>
<path d="M109.918 85.8171C110.113 85.8171 110.313 85.7722 110.499 85.6773C110.575 85.6388 118.129 81.8016 121.854 80.6248C122.529 80.4105 122.904 79.6892 122.69 79.0143C122.476 78.3392 121.76 77.9632 121.079 78.1763C117.155 79.4173 109.652 83.2288 109.334 83.3905C108.703 83.7112 108.451 84.4838 108.772 85.1165C108.999 85.5604 109.451 85.8171 109.918 85.8171Z" fill="url(#paint2_linear)"/>
<path d="M140.717 83.2504C140.007 83.2504 139.434 83.8254 139.434 84.5337V134.583C139.434 136.706 137.706 138.433 135.584 138.433H104.784V135.48C106.655 134.826 111.529 133.3 116.334 133.3C127.513 133.3 135.104 135.776 135.18 135.801C135.566 135.929 135.997 135.865 136.335 135.624C136.67 135.383 136.867 134.995 136.867 134.583V78.1172C136.867 77.5153 136.45 76.9942 135.862 76.8646C135.862 76.8646 134.856 76.6401 133.136 76.3242C132.442 76.196 131.771 76.658 131.643 77.3535C131.514 78.0516 131.975 78.7202 132.672 78.8485C133.328 78.9691 133.877 79.0756 134.3 79.1604V132.878C131.392 132.115 124.935 130.733 116.334 130.733C110.742 130.733 105.25 132.57 103.551 133.192C102.04 132.525 97.4742 130.733 91.9506 130.733C83.1111 130.733 75.8295 132.191 72.7008 132.932V79.1104C75.2636 78.4802 82.8327 76.8338 91.9506 76.8338C96.6297 76.8338 100.643 78.2903 102.217 78.9487V129.45C102.217 129.912 102.466 130.339 102.868 130.567C103.27 130.795 103.765 130.789 104.162 130.55C104.289 130.474 117.004 122.879 128.289 119.118C128.814 118.942 129.167 118.453 129.167 117.9V65.2838C129.167 64.8629 128.96 64.4689 128.614 64.229C128.27 63.989 127.829 63.9338 127.432 64.0815C117.164 67.9327 106.775 74.3981 106.67 74.4623C106.07 74.8382 105.886 75.63 106.262 76.2307C106.637 76.8314 107.429 77.0148 108.031 76.6389C108.126 76.5785 117.164 70.955 126.6 67.1603V116.981C117.84 120.025 108.694 124.996 104.784 127.221V78.1172C104.784 77.6308 104.509 77.1867 104.074 76.9687C103.853 76.8596 98.5944 74.2672 91.9506 74.2672C80.3546 74.2672 71.4393 76.7762 71.0646 76.8838C70.514 77.0404 70.1341 77.5448 70.1341 78.1172V134.583C70.1341 134.985 70.324 135.365 70.6436 135.608C70.8695 135.778 71.1416 135.867 71.4175 135.867C71.5356 135.867 71.6536 135.85 71.7691 135.817C71.8577 135.792 80.7319 133.3 91.9506 133.3C96.6425 133.3 100.652 134.761 102.217 135.416V138.433H71.4175C69.2949 138.433 67.5676 136.706 67.5676 134.583V84.5338C67.5676 83.8255 66.9926 83.2506 66.2843 83.2506C65.5759 83.2506 65.001 83.8255 65.001 84.5338V134.583C65.001 138.122 67.8795 141 71.4177 141H135.584C139.122 141 142.001 138.122 142.001 134.583V84.5338C142 83.8254 141.427 83.2504 140.717 83.2504Z" fill="url(#paint3_linear)"/>
<path d="M108.772 92.8163C108.999 93.2604 109.451 93.5169 109.918 93.5169C110.113 93.5169 110.313 93.472 110.499 93.3771C110.575 93.3386 118.129 89.5014 121.854 88.3246C122.529 88.1103 122.904 87.389 122.69 86.7141C122.476 86.039 121.76 85.663 121.079 85.8761C117.155 87.1171 109.652 90.9286 109.334 91.0903C108.703 91.411 108.451 92.1837 108.772 92.8163Z" fill="url(#paint4_linear)"/>
<path d="M108.772 108.216C108.999 108.66 109.451 108.917 109.918 108.917C110.113 108.917 110.313 108.872 110.499 108.777C110.575 108.738 118.129 104.901 121.854 103.724C122.529 103.51 122.904 102.789 122.69 102.114C122.476 101.439 121.76 101.063 121.079 101.276C117.155 102.517 109.652 106.328 109.334 106.49C108.703 106.811 108.451 107.584 108.772 108.216Z" fill="url(#paint5_linear)"/>
<path d="M96.0927 87.8166C88.1682 85.957 79.1631 88.3261 78.7845 88.4275C78.1006 88.6109 77.6938 89.3142 77.8772 89.9995C78.0312 90.5731 78.5496 90.9504 79.1157 90.9504C79.2261 90.9504 79.3377 90.9363 79.4494 90.9068C79.5354 90.8824 88.2055 88.6019 95.5077 90.3151C96.1942 90.4756 96.8886 90.0482 97.0502 89.3578C97.2118 88.6687 96.7832 87.9782 96.0927 87.8166Z" fill="url(#paint6_linear)"/>
<path d="M96.0927 95.5165C88.1682 93.6583 79.1631 96.026 78.7845 96.1274C78.1006 96.3109 77.6938 97.0142 77.8772 97.6994C78.0312 98.273 78.5496 98.6503 79.1157 98.6503C79.2261 98.6503 79.3377 98.6362 79.4494 98.6067C79.5354 98.5823 88.2055 96.3018 95.5077 98.0151C96.1942 98.1755 96.8886 97.7481 97.0502 97.0577C97.2118 96.3686 96.7832 95.6782 96.0927 95.5165Z" fill="url(#paint7_linear)"/>
<path d="M108.772 115.916C108.999 116.36 109.451 116.617 109.918 116.617C110.113 116.617 110.313 116.572 110.499 116.477C110.575 116.438 118.129 112.601 121.854 111.424C122.529 111.21 122.904 110.489 122.69 109.814C122.476 109.139 121.76 108.763 121.079 108.976C117.155 110.217 109.652 114.028 109.334 114.19C108.703 114.511 108.451 115.284 108.772 115.916Z" fill="url(#paint8_linear)"/>
<path d="M96.0927 103.216C88.1682 101.358 79.1631 103.725 78.7845 103.827C78.1006 104.011 77.6938 104.714 77.8772 105.399C78.0312 105.973 78.5496 106.352 79.1157 106.352C79.2261 106.352 79.3377 106.336 79.4494 106.307C79.5354 106.282 88.2055 104.002 95.5077 105.715C96.1942 105.875 96.8886 105.448 97.0502 104.758C97.2118 104.069 96.7832 103.378 96.0927 103.216Z" fill="url(#paint9_linear)"/>
<path d="M96.0927 118.616C88.1682 116.757 79.1631 119.126 78.7845 119.227C78.1006 119.411 77.6938 120.114 77.8772 120.799C78.0312 121.373 78.5496 121.752 79.1157 121.752C79.2261 121.752 79.3377 121.736 79.4494 121.707C79.5354 121.682 88.2055 119.402 95.5077 121.115C96.1942 121.274 96.8886 120.848 97.0502 120.158C97.2118 119.468 96.7832 118.778 96.0927 118.616Z" fill="url(#paint10_linear)"/>
<path d="M96.0927 110.916C88.1682 109.057 79.1631 111.425 78.7845 111.527C78.1006 111.711 77.6938 112.414 77.8772 113.099C78.0312 113.673 78.5496 114.052 79.1157 114.052C79.2261 114.052 79.3377 114.036 79.4494 114.007C79.5354 113.982 88.2055 111.702 95.5077 113.415C96.1942 113.575 96.8886 113.148 97.0502 112.458C97.2118 111.768 96.7832 111.078 96.0927 110.916Z" fill="url(#paint11_linear)"/>
</g>
<defs>
<linearGradient id="paint0_linear" x1="105.933" y1="294.268" x2="297.24" y2="101.048" gradientUnits="userSpaceOnUse">
<stop stop-color="#206DB3"/>
<stop stop-color="#2269B3"/>
<stop offset="1" stop-color="#853C92"/>
</linearGradient>
<linearGradient id="paint1_linear" x1="115.691" y1="93.5164" x2="115.691" y2="101.217" gradientUnits="userSpaceOnUse">
<stop stop-color="#853C92"/>
<stop offset="1" stop-color="#206DB3"/>
</linearGradient>
<linearGradient id="paint2_linear" x1="115.691" y1="78.1166" x2="115.691" y2="85.8171" gradientUnits="userSpaceOnUse">
<stop stop-color="#853C92"/>
<stop offset="1" stop-color="#206DB3"/>
</linearGradient>
<linearGradient id="paint3_linear" x1="103.501" y1="64" x2="103.501" y2="141" gradientUnits="userSpaceOnUse">
<stop stop-color="#853C92"/>
<stop offset="1" stop-color="#206DB3"/>
</linearGradient>
<linearGradient id="paint4_linear" x1="115.691" y1="85.8164" x2="115.691" y2="93.5169" gradientUnits="userSpaceOnUse">
<stop stop-color="#853C92"/>
<stop offset="1" stop-color="#206DB3"/>
</linearGradient>
<linearGradient id="paint5_linear" x1="115.691" y1="101.216" x2="115.691" y2="108.917" gradientUnits="userSpaceOnUse">
<stop stop-color="#853C92"/>
<stop offset="1" stop-color="#206DB3"/>
</linearGradient>
<linearGradient id="paint6_linear" x1="87.4588" y1="87.1065" x2="87.4588" y2="90.9504" gradientUnits="userSpaceOnUse">
<stop stop-color="#853C92"/>
<stop offset="1" stop-color="#206DB3"/>
</linearGradient>
<linearGradient id="paint7_linear" x1="87.4588" y1="94.807" x2="87.4588" y2="98.6503" gradientUnits="userSpaceOnUse">
<stop stop-color="#853C92"/>
<stop offset="1" stop-color="#206DB3"/>
</linearGradient>
<linearGradient id="paint8_linear" x1="115.691" y1="108.916" x2="115.691" y2="116.617" gradientUnits="userSpaceOnUse">
<stop stop-color="#853C92"/>
<stop offset="1" stop-color="#206DB3"/>
</linearGradient>
<linearGradient id="paint9_linear" x1="87.4588" y1="102.507" x2="87.4588" y2="106.352" gradientUnits="userSpaceOnUse">
<stop stop-color="#853C92"/>
<stop offset="1" stop-color="#206DB3"/>
</linearGradient>
<linearGradient id="paint10_linear" x1="87.4588" y1="117.906" x2="87.4588" y2="121.752" gradientUnits="userSpaceOnUse">
<stop stop-color="#853C92"/>
<stop offset="1" stop-color="#206DB3"/>
</linearGradient>
<linearGradient id="paint11_linear" x1="87.4588" y1="110.206" x2="87.4588" y2="114.052" gradientUnits="userSpaceOnUse">
<stop stop-color="#853C92"/>
<stop offset="1" stop-color="#206DB3"/>
</linearGradient>
<clipPath id="clip0">
<rect width="77" height="77" fill="white" transform="translate(65 64)"/>
</clipPath>
</defs>
</svg>
