<svg width="206" height="206" viewBox="0 0 206 206" fill="none" xmlns="http://www.w3.org/2000/svg">
<path d="M103 203C158.228 203 203 158.228 203 103C203 47.7715 158.228 3 103 3C47.7715 3 3 47.7715 3 103C3 158.228 47.7715 203 103 203Z" stroke="url(#paint0_linear)" stroke-width="6"/>
<g clip-path="url(#clip0)">
<path d="M102.319 65.8113C89.7443 65.8113 79.5141 76.0415 79.5141 88.6161C79.5141 92.6508 80.5825 96.6166 82.6038 100.084C84.3533 103.087 86.7792 105.658 89.6626 107.586V118.439C89.6626 122.136 92.6697 125.143 96.3659 125.143H100.036V129.614C100.036 130.861 101.046 131.872 102.293 131.872C103.539 131.872 104.55 130.861 104.55 129.614V125.143H108.22C111.916 125.143 114.923 122.136 114.923 118.439V107.621C117.829 105.689 120.274 103.105 122.034 100.085C124.056 96.6169 125.124 92.6512 125.124 88.6162C125.124 76.0416 114.894 65.8113 102.319 65.8113ZM110.409 118.439C110.409 119.646 109.427 120.628 108.22 120.628H96.366C95.159 120.628 94.1772 119.646 94.1772 118.439V115.922H110.409V118.439H110.409ZM118.134 97.8116C116.56 100.511 114.307 102.779 111.618 104.37C111.278 104.572 111.01 104.849 110.823 105.167C110.563 105.535 110.409 105.983 110.409 106.468V111.408H94.1771V106.468C94.1771 106.2 94.1282 105.945 94.0428 105.707C93.8918 105.165 93.5415 104.679 93.0198 104.37C90.3305 102.779 88.0774 100.511 86.5041 97.8114C84.8846 95.0328 84.0286 91.8531 84.0286 88.6164C84.0286 78.531 92.2336 70.3259 102.319 70.3259C112.405 70.3259 120.609 78.5309 120.609 88.6164C120.609 91.8532 119.754 95.033 118.134 97.8116Z" fill="url(#paint1_linear)"/>
<path d="M78.5574 107.715C78.4351 106.474 77.3323 105.567 76.0899 105.69L66.036 106.68C64.7956 106.803 63.8887 107.907 64.0111 109.148C64.1259 110.313 65.1076 111.184 66.2548 111.184C66.3287 111.184 66.4035 111.18 66.4787 111.173L76.5327 110.182C77.7729 110.06 78.6798 108.956 78.5574 107.715Z" fill="url(#paint2_linear)"/>
<path d="M81.5724 119.612C81.0623 118.475 79.7272 117.966 78.5894 118.476L68.6596 122.928C67.5222 123.438 67.0135 124.773 67.5234 125.911C67.8989 126.748 68.7221 127.245 69.5843 127.245C69.8929 127.245 70.2065 127.181 70.5065 127.047L80.4363 122.595C81.5736 122.085 82.0824 120.75 81.5724 119.612Z" fill="url(#paint3_linear)"/>
<path d="M87.2966 131.101C86.4671 130.17 85.0402 130.088 84.1096 130.917L79.3567 135.151C78.4258 135.98 78.3435 137.407 79.1724 138.338C79.6185 138.838 80.2372 139.094 80.8586 139.094C81.3928 139.094 81.929 138.905 82.3594 138.522L87.1123 134.288C88.0432 133.459 88.1255 132.032 87.2966 131.101Z" fill="url(#paint4_linear)"/>
<path d="M138.964 106.775L128.91 105.785C127.67 105.664 126.565 106.569 126.443 107.81C126.32 109.05 127.227 110.155 128.468 110.277L138.522 111.268C138.597 111.275 138.671 111.279 138.745 111.279C139.892 111.279 140.874 110.408 140.989 109.243C141.111 108.002 140.204 106.898 138.964 106.775Z" fill="url(#paint5_linear)"/>
<path d="M136.34 123.023L126.411 118.571C125.273 118.061 123.937 118.57 123.428 119.707C122.918 120.845 123.426 122.18 124.564 122.69L134.494 127.142C134.794 127.277 135.107 127.34 135.416 127.34C136.278 127.34 137.101 126.843 137.477 126.006C137.987 124.868 137.478 123.533 136.34 123.023Z" fill="url(#paint6_linear)"/>
<path d="M125.643 135.246L120.89 131.012C119.96 130.183 118.533 130.265 117.704 131.196C116.874 132.127 116.957 133.554 117.888 134.383L122.641 138.617C123.071 139 123.607 139.189 124.141 139.189C124.763 139.189 125.382 138.934 125.827 138.433C126.657 137.502 126.574 136.075 125.643 135.246Z" fill="url(#paint7_linear)"/>
</g>
<defs>
<linearGradient id="paint0_linear" x1="105.933" y1="294.268" x2="297.24" y2="101.048" gradientUnits="userSpaceOnUse">
<stop stop-color="#206DB3"/>
<stop stop-color="#2269B3"/>
<stop offset="1" stop-color="#853C92"/>
</linearGradient>
<linearGradient id="paint1_linear" x1="102.319" y1="65.8113" x2="102.319" y2="131.872" gradientUnits="userSpaceOnUse">
<stop stop-color="#853C92"/>
<stop offset="1" stop-color="#206DB3"/>
</linearGradient>
<linearGradient id="paint2_linear" x1="71.2842" y1="105.679" x2="71.2842" y2="111.184" gradientUnits="userSpaceOnUse">
<stop stop-color="#853C92"/>
<stop offset="1" stop-color="#206DB3"/>
</linearGradient>
<linearGradient id="paint3_linear" x1="74.5479" y1="118.278" x2="74.5479" y2="127.245" gradientUnits="userSpaceOnUse">
<stop stop-color="#853C92"/>
<stop offset="1" stop-color="#206DB3"/>
</linearGradient>
<linearGradient id="paint4_linear" x1="83.2345" y1="130.345" x2="83.2345" y2="139.094" gradientUnits="userSpaceOnUse">
<stop stop-color="#853C92"/>
<stop offset="1" stop-color="#206DB3"/>
</linearGradient>
<linearGradient id="paint5_linear" x1="133.716" y1="105.774" x2="133.716" y2="111.279" gradientUnits="userSpaceOnUse">
<stop stop-color="#853C92"/>
<stop offset="1" stop-color="#206DB3"/>
</linearGradient>
<linearGradient id="paint6_linear" x1="130.452" y1="118.373" x2="130.452" y2="127.34" gradientUnits="userSpaceOnUse">
<stop stop-color="#853C92"/>
<stop offset="1" stop-color="#206DB3"/>
</linearGradient>
<linearGradient id="paint7_linear" x1="121.765" y1="130.441" x2="121.765" y2="139.189" gradientUnits="userSpaceOnUse">
<stop stop-color="#853C92"/>
<stop offset="1" stop-color="#206DB3"/>
</linearGradient>
<clipPath id="clip0">
<rect width="77" height="77" fill="white" transform="translate(64 64)"/>
</clipPath>
</defs>
</svg>
