<svg width="104" height="104" viewBox="0 0 104 104" fill="none" xmlns="http://www.w3.org/2000/svg">
<path fill-rule="evenodd" clip-rule="evenodd" d="M104 93.6842C99.9612 96.1433 95.6032 98.2237 91.0205 99.8626C86.4237 101.469 81.6077 102.615 76.6947 103.295C66.8639 104.666 56.6469 104.015 46.9757 101.53C37.3232 98.9694 28.2957 94.4464 20.7181 88.4213C16.9171 85.4178 13.5575 81.9744 10.6214 78.275C7.67791 74.5847 5.15888 70.4875 3.41515 66.1617C1.61265 61.8442 0.547189 57.2856 0.133882 52.683C-0.0480482 50.3781 -0.0377854 48.0623 0.123619 45.7548C0.333538 43.4515 0.640487 41.1489 1.19094 38.8854C3.29666 29.8178 8.25915 21.259 15.4319 14.4567C19.0425 11.0721 23.1149 8.10513 27.6977 5.75953L29.4405 4.88708C30.0245 4.60041 30.5917 4.28805 31.215 4.06931L34.8862 2.64423L38.7012 1.54641C39.3309 1.34176 39.9933 1.24814 40.6445 1.11308L42.6038 0.736098C53.0979 -1.03201 64.2908 0.388112 73.7063 4.96414C78.4001 7.25588 82.6424 10.2626 86.2054 13.8047L87.5116 15.156C87.9538 15.6034 88.3867 16.0558 88.7505 16.5537L91.0354 19.4777C91.6969 20.5365 92.3882 21.5838 93.0068 22.6626C93.5348 23.7803 94.1338 24.8748 94.5835 26.019C98.2865 35.1702 97.2863 45.6786 91.8807 54.0949C89.1825 58.2981 85.4357 61.9552 81.033 64.7557C76.6732 67.5885 71.2899 69.6076 65.7845 70.055C60.2752 70.6234 54.6494 69.7452 49.63 67.75C44.6601 65.6563 40.2536 62.4582 37.2121 58.4157C36.838 57.9045 36.4228 57.4347 36.0879 56.8879L35.0887 55.249C34.5214 54.1115 33.9654 52.9689 33.6034 51.7659C32.8262 49.3805 32.4978 46.8882 32.6312 44.4209C32.926 39.4828 35.1391 34.693 38.7907 31.0192C40.6473 29.1948 42.7988 27.681 45.2096 26.4705C47.6633 25.2675 50.4053 24.5309 53.1818 24.3246C58.7358 23.888 64.4214 25.6113 68.3912 28.9984C70.3644 30.6919 71.9682 32.6763 72.9777 35.0045C73.9853 37.3078 74.2073 39.8407 73.7847 42.2335C72.8946 47.0465 69.0872 51.2687 63.9344 52.8579C61.3482 53.6143 58.5175 53.5862 55.9976 52.8065C53.4888 52.0177 51.259 50.5239 49.8558 48.5528C48.3808 46.6016 47.8863 44.1019 48.4964 41.8747C49.0749 39.6369 50.7244 37.6741 52.9085 36.5779L53.1576 36.9284C51.133 38.0444 49.6935 39.9335 49.2522 42.0057C48.7894 44.0762 49.3361 46.2967 50.7375 48.0051C52.0819 49.7608 54.1307 51.0483 56.3941 51.6963C58.6668 52.3351 61.17 52.2887 63.41 51.5711C67.8911 50.0665 71.1826 46.1981 71.8049 41.9907C72.1035 39.8912 71.8441 37.7064 70.9149 35.7502C70.0006 33.7932 68.5143 32.0491 66.7473 30.6207C63.202 27.7407 58.2339 26.3363 53.4701 26.8028C51.0883 27.0232 48.7642 27.6951 46.6921 28.759C44.6311 29.8452 42.7531 31.2181 41.1782 32.8312C38.0845 36.0973 36.2353 40.2724 36.0487 44.5402C35.9078 48.7947 37.3092 53.1097 40.2032 56.5349C42.9406 60.0653 46.8526 62.7987 51.2189 64.5767C55.6328 66.2578 60.5383 67.0019 65.317 66.4592C70.1153 66.0209 74.6738 64.2727 78.5335 61.7241C82.4222 59.1995 85.7044 55.9351 88.0517 52.1967C92.7446 44.7084 93.6179 35.437 90.3142 27.3894C89.914 26.3819 89.3738 25.4224 88.9119 24.4365C88.3596 23.4878 87.7429 22.5681 87.1626 21.6327L85.0858 19.0013C84.7574 18.5497 84.3628 18.1445 83.9616 17.7444L82.7767 16.5297C79.5514 13.349 75.7206 10.6554 71.4859 8.60474C63.0229 4.45873 52.9243 3.14135 43.4509 4.70232L41.6801 5.03705C41.0924 5.15636 40.4925 5.23341 39.9243 5.41983L36.476 6.39668L33.1537 7.67512C32.5883 7.86734 32.0752 8.15318 31.5462 8.41086L29.9657 9.19549C25.7599 11.3132 21.9813 14.0748 18.6133 17.1511C11.9267 23.3685 7.23661 31.2479 5.185 39.6534C3.09421 48.054 3.69038 56.9649 6.88861 65.0871C8.45041 69.1627 10.7203 73.0046 13.4558 76.5591C16.1848 80.1201 19.3308 83.436 22.8761 86.3798C29.9601 92.2707 38.5043 96.7738 47.7379 99.4442C56.9734 102.091 66.862 103.008 76.5062 101.931C86.1485 100.88 95.5155 97.9205 103.751 93.3337L104 93.6842Z" fill="white"/>
<path fill-rule="evenodd" clip-rule="evenodd" d="M99 91.4777C95.2718 93.7476 91.2491 95.6681 87.0189 97.1808C82.7757 98.6638 78.3302 99.7215 73.7951 100.349C64.7205 101.615 55.2895 101.014 46.3622 98.7196C37.4521 96.3564 29.1191 92.1813 22.1244 86.6196C18.6158 83.8472 15.5146 80.6687 12.8044 77.2538C10.0873 73.8474 7.76204 70.0654 6.15245 66.0724C4.4886 62.087 3.5051 57.879 3.12358 53.6305C2.95565 51.5028 2.96512 49.3652 3.11411 47.2352C3.30788 45.109 3.59122 42.9836 4.09933 40.8942C6.04307 32.5242 10.6238 24.6237 17.2448 18.3447C20.5777 15.2204 24.3368 12.4817 28.5671 10.3165L30.1758 9.51115C30.7149 9.24653 31.2385 8.9582 31.8138 8.75629L35.2027 7.44082L38.7241 6.42746C39.3055 6.23855 39.9169 6.15213 40.518 6.02746L42.3266 5.67948C52.0134 4.04738 62.3453 5.35826 71.0366 9.58228C75.3694 11.6977 79.2853 14.4732 82.5742 17.7428L83.7799 18.9902C84.1881 19.4032 84.5877 19.8207 84.9236 20.2804L87.0327 22.9794C87.6433 23.9568 88.2814 24.9235 88.8524 25.9193C89.3398 26.951 89.8927 27.9613 90.3078 29.0175C93.726 37.4648 92.8028 47.1648 87.8129 54.9337C85.3223 58.8136 81.8637 62.1894 77.7997 64.7745C73.7753 67.3894 68.8061 69.2532 63.7241 69.6662C58.6387 70.1908 53.4456 69.3802 48.8123 67.5385C44.2247 65.6058 40.1572 62.6537 37.3497 58.9222C37.0043 58.4503 36.6211 58.0167 36.3119 57.5119L35.3896 55.9991C34.8659 54.949 34.3527 53.8944 34.0185 52.7839C33.3011 50.582 32.998 48.2815 33.1211 46.0039C33.3933 41.4456 35.4361 37.0243 38.8068 33.6331C40.5206 31.949 42.5066 30.5517 44.7319 29.4343C46.9969 28.3238 49.528 27.6439 52.0909 27.4535C57.2177 27.0504 62.4659 28.6412 66.1303 31.7678C67.9518 33.331 69.4322 35.1627 70.364 37.3118C71.2941 39.438 71.4991 41.776 71.109 43.9848C70.2874 48.4275 66.7728 52.325 62.0163 53.7919C59.6291 54.4902 57.0162 54.4641 54.6901 53.7445C52.3743 53.0164 50.316 51.6374 49.0207 49.8179C47.6592 48.0168 47.2027 45.7094 47.766 43.6536C48.2999 41.5879 49.8225 39.776 51.8386 38.7642L52.0685 39.0877C50.1997 40.1179 48.8709 41.8617 48.4635 43.7745C48.0364 45.6857 48.541 47.7354 49.8346 49.3124C51.0756 50.933 52.9668 52.1215 55.0561 52.7196C57.154 53.3093 59.4646 53.2665 61.5323 52.6041C65.6687 51.2152 68.7071 47.6444 69.2815 43.7607C69.5571 41.8227 69.3177 39.8059 68.4599 38.0002C67.6159 36.1937 66.244 34.5838 64.6129 33.2653C61.3403 30.6068 56.7544 29.3104 52.357 29.741C50.1584 29.9445 48.0131 30.5647 46.1004 31.5467C44.198 32.5494 42.4644 33.8167 41.0106 35.3058C38.1549 38.3206 36.448 42.1745 36.2757 46.114C36.1457 50.0413 37.4392 54.0244 40.1107 57.1861C42.6375 60.4449 46.2485 62.968 50.279 64.6093C54.3533 66.1611 58.8815 66.8479 63.2926 66.3469C67.7218 65.9423 71.9297 64.3286 75.4925 61.9761C79.082 59.6457 82.1117 56.6324 84.2785 53.1816C88.6104 46.2692 89.4165 37.7111 86.367 30.2825C85.9975 29.3525 85.4989 28.4669 85.0726 27.5567C84.5627 26.681 83.9935 25.8321 83.4578 24.9686L81.5408 22.5396C81.2376 22.1228 80.8733 21.7488 80.503 21.3794L79.4093 20.2582C76.4321 17.3221 72.896 14.8357 68.9869 12.9428C61.1749 9.11575 51.8532 7.89971 43.1085 9.3406L41.474 9.64958C40.9314 9.75971 40.3777 9.83084 39.8532 10.0029L36.6702 10.9046L33.6034 12.0847C33.0815 12.2622 32.6079 12.526 32.1196 12.7639L30.6607 13.4881C26.7783 15.443 23.2905 17.9921 20.1815 20.8318C14.0092 26.5709 9.67995 33.8442 7.78616 41.6032C5.85619 49.3575 6.4065 57.583 9.35872 65.0804C10.8004 68.8425 12.8957 72.3889 15.4208 75.6699C17.9398 78.957 20.8438 82.0178 24.1164 84.7352C30.6555 90.1729 38.5424 94.3297 47.0658 96.7946C55.5909 99.2374 64.7188 100.084 73.6211 99.0906C82.5217 98.12 91.1682 95.3881 98.7701 91.1542L99 91.4777Z" fill="#F9BA48"/>
</svg>
