<svg width="104" height="104" viewBox="0 0 104 104" fill="none" xmlns="http://www.w3.org/2000/svg">
<path fill-rule="evenodd" clip-rule="evenodd" d="M104 93.6842C99.9612 96.1433 95.6032 98.2237 91.0205 99.8626C86.4237 101.469 81.6077 102.615 76.6947 103.295C66.8639 104.666 56.6469 104.015 46.9757 101.53C37.3232 98.9694 28.2957 94.4464 20.7181 88.4213C16.9171 85.4178 13.5575 81.9744 10.6214 78.275C7.67791 74.5847 5.15888 70.4875 3.41515 66.1617C1.61265 61.8442 0.547189 57.2856 0.133882 52.683C-0.0480482 50.3781 -0.0377854 48.0623 0.123619 45.7548C0.333538 43.4515 0.640487 41.1489 1.19094 38.8854C3.29666 29.8178 8.25915 21.259 15.4319 14.4567C19.0425 11.0721 23.1149 8.10513 27.6977 5.75953L29.4405 4.88708C30.0245 4.60041 30.5917 4.28805 31.215 4.06931L34.8862 2.64423L38.7012 1.54641C39.3309 1.34176 39.9933 1.24814 40.6445 1.11308L42.6038 0.736098C53.0979 -1.03201 64.2908 0.388112 73.7063 4.96414C78.4001 7.25588 82.6424 10.2626 86.2054 13.8047L87.5116 15.156C87.9538 15.6034 88.3867 16.0558 88.7505 16.5537L91.0354 19.4777C91.6969 20.5365 92.3882 21.5838 93.0068 22.6626C93.5348 23.7803 94.1338 24.8748 94.5835 26.019C98.2865 35.1702 97.2863 45.6786 91.8807 54.0949C89.1825 58.2981 85.4357 61.9552 81.033 64.7557C76.6732 67.5885 71.2899 69.6076 65.7845 70.055C60.2752 70.6234 54.6494 69.7452 49.63 67.75C44.6601 65.6563 40.2536 62.4582 37.2121 58.4157C36.838 57.9045 36.4228 57.4347 36.0879 56.8879L35.0887 55.249C34.5214 54.1115 33.9654 52.9689 33.6034 51.7659C32.8262 49.3805 32.4978 46.8882 32.6312 44.4209C32.926 39.4828 35.1391 34.693 38.7907 31.0192C40.6473 29.1948 42.7988 27.681 45.2096 26.4705C47.6633 25.2675 50.4053 24.5309 53.1818 24.3246C58.7358 23.888 64.4214 25.6113 68.3912 28.9984C70.3644 30.6919 71.9682 32.6763 72.9777 35.0045C73.9853 37.3078 74.2073 39.8407 73.7847 42.2335C72.8946 47.0465 69.0872 51.2687 63.9344 52.8579C61.3482 53.6143 58.5175 53.5862 55.9976 52.8065C53.4888 52.0177 51.259 50.5239 49.8558 48.5528C48.3808 46.6016 47.8863 44.1019 48.4964 41.8747C49.0749 39.6369 50.7244 37.6741 52.9085 36.5779L53.1576 36.9284C51.133 38.0444 49.6935 39.9335 49.2522 42.0057C48.7894 44.0762 49.3361 46.2967 50.7375 48.0051C52.0819 49.7608 54.1307 51.0483 56.3941 51.6963C58.6668 52.3351 61.17 52.2887 63.41 51.5711C67.8911 50.0665 71.1826 46.1981 71.8049 41.9907C72.1035 39.8912 71.8441 37.7064 70.9149 35.7502C70.0006 33.7932 68.5143 32.0491 66.7473 30.6207C63.202 27.7407 58.2339 26.3363 53.4701 26.8028C51.0883 27.0232 48.7642 27.6951 46.6921 28.759C44.6311 29.8452 42.7531 31.2181 41.1782 32.8312C38.0845 36.0973 36.2353 40.2724 36.0487 44.5402C35.9078 48.7947 37.3092 53.1097 40.2032 56.5349C42.9406 60.0653 46.8526 62.7987 51.2189 64.5767C55.6328 66.2578 60.5383 67.0019 65.317 66.4592C70.1153 66.0209 74.6738 64.2727 78.5335 61.7241C82.4222 59.1995 85.7044 55.9351 88.0517 52.1967C92.7446 44.7084 93.6179 35.437 90.3142 27.3894C89.914 26.3819 89.3738 25.4224 88.9119 24.4365C88.3596 23.4878 87.7429 22.5681 87.1626 21.6327L85.0858 19.0013C84.7574 18.5497 84.3628 18.1445 83.9616 17.7444L82.7767 16.5297C79.5514 13.349 75.7206 10.6554 71.4859 8.60474C63.0229 4.45873 52.9243 3.14135 43.4509 4.70232L41.6801 5.03705C41.0924 5.15636 40.4925 5.23341 39.9243 5.41983L36.476 6.39668L33.1537 7.67512C32.5883 7.86734 32.0752 8.15318 31.5462 8.41086L29.9657 9.19549C25.7599 11.3132 21.9813 14.0748 18.6133 17.1511C11.9267 23.3685 7.23661 31.2479 5.185 39.6534C3.09421 48.054 3.69038 56.9649 6.88861 65.0871C8.45041 69.1627 10.7203 73.0046 13.4558 76.5591C16.1848 80.1201 19.3308 83.436 22.8761 86.3798C29.9601 92.2707 38.5043 96.7738 47.7379 99.4442C56.9734 102.091 66.862 103.008 76.5062 101.931C86.1485 100.88 95.5155 97.9205 103.751 93.3337L104 93.6842Z" fill="#333333"/>
<path fill-rule="evenodd" clip-rule="evenodd" d="M100 91.4777C96.2718 93.7476 92.2491 95.6681 88.0189 97.1808C83.7757 98.6638 79.3302 99.7215 74.7951 100.349C65.7205 101.615 56.2895 101.014 47.3622 98.7196C38.4521 96.3564 30.1191 92.1813 23.1244 86.6196C19.6158 83.8472 16.5146 80.6687 13.8044 77.2538C11.0873 73.8474 8.76204 70.0654 7.15245 66.0724C5.4886 62.087 4.5051 57.879 4.12358 53.6305C3.95565 51.5028 3.96512 49.3652 4.11411 47.2352C4.30788 45.109 4.59122 42.9836 5.09933 40.8942C7.04307 32.5242 11.6238 24.6237 18.2448 18.3447C21.5777 15.2204 25.3368 12.4817 29.5671 10.3165L31.1758 9.51115C31.7149 9.24653 32.2385 8.9582 32.8138 8.75629L36.2027 7.44082L39.7241 6.42746C40.3055 6.23855 40.9169 6.15213 41.518 6.02746L43.3266 5.67948C53.0134 4.04738 63.3453 5.35826 72.0366 9.58228C76.3694 11.6977 80.2853 14.4732 83.5742 17.7428L84.7799 18.9902C85.1881 19.4032 85.5877 19.8207 85.9236 20.2804L88.0327 22.9794C88.6433 23.9568 89.2814 24.9235 89.8524 25.9193C90.3398 26.951 90.8927 27.9613 91.3078 29.0175C94.726 37.4648 93.8028 47.1648 88.8129 54.9337C86.3223 58.8136 82.8637 62.1894 78.7997 64.7745C74.7753 67.3894 69.8061 69.2532 64.7241 69.6662C59.6387 70.1908 54.4456 69.3802 49.8123 67.5385C45.2247 65.6058 41.1572 62.6537 38.3497 58.9222C38.0043 58.4503 37.6211 58.0167 37.3119 57.5119L36.3896 55.9991C35.8659 54.949 35.3527 53.8944 35.0185 52.7839C34.3011 50.582 33.998 48.2815 34.1211 46.0039C34.3933 41.4456 36.4361 37.0243 39.8068 33.6331C41.5206 31.949 43.5066 30.5517 45.7319 29.4343C47.9969 28.3238 50.528 27.6439 53.0909 27.4535C58.2177 27.0504 63.4659 28.6412 67.1303 31.7678C68.9518 33.331 70.4322 35.1627 71.364 37.3118C72.2941 39.438 72.4991 41.776 72.109 43.9848C71.2874 48.4275 67.7728 52.325 63.0163 53.7919C60.6291 54.4902 58.0162 54.4641 55.6901 53.7445C53.3743 53.0164 51.316 51.6374 50.0207 49.8179C48.6592 48.0168 48.2027 45.7094 48.766 43.6536C49.2999 41.5879 50.8225 39.776 52.8386 38.7642L53.0685 39.0877C51.1997 40.1179 49.8709 41.8617 49.4635 43.7745C49.0364 45.6857 49.541 47.7354 50.8346 49.3124C52.0756 50.933 53.9668 52.1215 56.0561 52.7196C58.154 53.3093 60.4646 53.2665 62.5323 52.6041C66.6687 51.2152 69.7071 47.6444 70.2815 43.7607C70.5571 41.8227 70.3177 39.8059 69.4599 38.0002C68.6159 36.1937 67.244 34.5838 65.6129 33.2653C62.3403 30.6068 57.7544 29.3104 53.357 29.741C51.1584 29.9445 49.0131 30.5647 47.1004 31.5467C45.198 32.5494 43.4644 33.8167 42.0106 35.3058C39.1549 38.3206 37.448 42.1745 37.2757 46.114C37.1457 50.0413 38.4392 54.0244 41.1107 57.1861C43.6375 60.4449 47.2485 62.968 51.279 64.6093C55.3533 66.1611 59.8815 66.8479 64.2926 66.3469C68.7218 65.9423 72.9297 64.3286 76.4925 61.9761C80.082 59.6457 83.1117 56.6324 85.2785 53.1816C89.6104 46.2692 90.4165 37.7111 87.367 30.2825C86.9975 29.3525 86.4989 28.4669 86.0726 27.5567C85.5627 26.681 84.9935 25.8321 84.4578 24.9686L82.5408 22.5396C82.2376 22.1228 81.8733 21.7488 81.503 21.3794L80.4093 20.2582C77.4321 17.3221 73.896 14.8357 69.9869 12.9428C62.1749 9.11575 52.8532 7.89971 44.1085 9.3406L42.474 9.64958C41.9314 9.75971 41.3777 9.83084 40.8532 10.0029L37.6702 10.9046L34.6034 12.0847C34.0815 12.2622 33.6079 12.526 33.1196 12.7639L31.6607 13.4881C27.7783 15.443 24.2905 17.9921 21.1815 20.8318C15.0092 26.5709 10.6799 33.8442 8.78616 41.6032C6.85619 49.3575 7.4065 57.583 10.3587 65.0804C11.8004 68.8425 13.8957 72.3889 16.4208 75.6699C18.9398 78.957 21.8438 82.0178 25.1164 84.7352C31.6555 90.1729 39.5424 94.3297 48.0658 96.7946C56.5909 99.2374 65.7188 100.084 74.6211 99.0906C83.5217 98.12 92.1682 95.3881 99.7701 91.1542L100 91.4777Z" fill="#F9BA48"/>
</svg>
