<svg width="101" height="101" viewBox="0 0 101 101" fill="none" xmlns="http://www.w3.org/2000/svg">
<mask id="mask0" mask-type="alpha" maskUnits="userSpaceOnUse" x="0" y="0" width="23" height="34">
<path fill-rule="evenodd" clip-rule="evenodd" d="M0 0H22.4727V33.8711H0V0Z" fill="white"/>
</mask>
<g mask="url(#mask0)">
<path fill-rule="evenodd" clip-rule="evenodd" d="M19.2622 30.6452H3.21005V29.0327C3.21005 24.5856 6.811 20.9678 11.2364 20.9678C15.6617 20.9678 19.2622 24.5856 19.2622 29.0327V30.6452ZM4.81579 9.6774C4.81579 6.11923 7.69522 3.22596 11.2364 3.22596C14.777 3.22596 17.6569 6.11923 17.6569 9.6774C17.6569 13.2356 14.777 16.1293 11.2364 16.1293C7.69522 16.1293 4.81579 13.2356 4.81579 9.6774ZM22.4727 29.0327C22.4727 24.213 19.445 20.1014 15.2072 18.4841C18.5397 16.9596 20.867 13.5904 20.867 9.6774C20.867 4.34038 16.5478 0 11.2364 0C5.9244 0 1.60526 4.34038 1.60526 9.6774C1.60526 13.5904 3.93254 16.9596 7.26507 18.4841C3.02727 20.1014 0 24.213 0 29.0327V33.8712H22.4727V29.0327Z" fill="white"/>
</g>
<mask id="mask1" mask-type="alpha" maskUnits="userSpaceOnUse" x="38" y="66" width="23" height="35">
<path fill-rule="evenodd" clip-rule="evenodd" d="M38.5244 66.1289H60.9971V100H38.5244V66.1289Z" fill="white"/>
</mask>
<g mask="url(#mask1)">
<path fill-rule="evenodd" clip-rule="evenodd" d="M57.7866 96.7741H41.7349V95.1616C41.7349 90.7145 45.3354 87.0967 49.7613 87.0967C54.1866 87.0967 57.7866 90.7145 57.7866 95.1616V96.7741ZM43.3402 75.8068C43.3402 72.2481 46.2196 69.3549 49.7613 69.3549C53.3019 69.3549 56.1818 72.2481 56.1818 75.8068C56.1818 79.3645 53.3019 82.2582 49.7613 82.2582C46.2196 82.2582 43.3402 79.3645 43.3402 75.8068ZM53.7321 84.613C57.0641 83.0885 59.3919 79.7193 59.3919 75.8068C59.3919 70.4693 55.0723 66.1289 49.7613 66.1289C44.4493 66.1289 40.1297 70.4693 40.1297 75.8068C40.1297 79.7193 42.4574 83.0885 45.7895 84.613C41.5517 86.2303 38.5244 90.3419 38.5244 95.1616V100H60.9971V95.1616C60.9971 90.3419 57.9699 86.2303 53.7321 84.613Z" fill="white"/>
</g>
<mask id="mask2" mask-type="alpha" maskUnits="userSpaceOnUse" x="77" y="0" width="23" height="34">
<path fill-rule="evenodd" clip-rule="evenodd" d="M77.0493 0H99.5218V33.8711H77.0493V0Z" fill="white"/>
</mask>
<g mask="url(#mask2)">
<path fill-rule="evenodd" clip-rule="evenodd" d="M96.3115 30.6452H80.2594V29.0327C80.2594 24.5856 83.8603 20.9678 88.2857 20.9678C92.711 20.9678 96.3115 24.5856 96.3115 29.0327V30.6452ZM81.8651 9.6774C81.8651 6.11923 84.7445 3.22596 88.2857 3.22596C91.8264 3.22596 94.7063 6.11923 94.7063 9.6774C94.7063 13.2356 91.8264 16.1293 88.2857 16.1293C84.7445 16.1293 81.8651 13.2356 81.8651 9.6774ZM92.2565 18.4841C95.589 16.9596 97.9163 13.5904 97.9163 9.6774C97.9163 4.34038 93.5972 0 88.2857 0C82.9737 0 78.6546 4.34038 78.6546 9.6774C78.6546 13.5904 80.9819 16.9596 84.3144 18.4841C80.0766 20.1014 77.0493 24.213 77.0493 29.0327V33.8712H99.522V29.0327C99.522 24.213 96.4943 20.1014 92.2565 18.4841Z" fill="white"/>
</g>
<path fill-rule="evenodd" clip-rule="evenodd" d="M89.6197 39.6215L65.535 75.0994L62.8828 73.2816L86.9675 37.8037L89.6197 39.6215Z" fill="white"/>
<path fill-rule="evenodd" clip-rule="evenodd" d="M36.6369 73.2845L33.9848 75.1013L9.90967 39.6205L12.5623 37.8032L36.6369 73.2845Z" fill="white"/>
<mask id="mask3" mask-type="alpha" maskUnits="userSpaceOnUse" x="0" y="0" width="100" height="100">
<path fill-rule="evenodd" clip-rule="evenodd" d="M0 100H99.5215V0H0V100Z" fill="white"/>
</mask>
<g mask="url(#mask3)">
<path fill-rule="evenodd" clip-rule="evenodd" d="M26.9653 6.45204H72.5558V3.22607H26.9653V6.45204Z" fill="white"/>
<path fill-rule="evenodd" clip-rule="evenodd" d="M48.1553 17.7417H51.3658V11.2903H48.1553V17.7417Z" fill="#F9BA48"/>
<path fill-rule="evenodd" clip-rule="evenodd" d="M42.3225 19.3141L39.5416 20.9266L36.332 15.3391L39.1124 13.7261L42.3225 19.3141Z" fill="#F9BA48"/>
<path fill-rule="evenodd" clip-rule="evenodd" d="M35.2715 25.2218L33.6667 28.0156L28.1055 24.7906L29.7107 21.9968L35.2715 25.2218Z" fill="#F9BA48"/>
<path fill-rule="evenodd" clip-rule="evenodd" d="M25.6826 37.0966H32.1037V33.8711H25.6826V37.0966Z" fill="#F9BA48"/>
<path fill-rule="evenodd" clip-rule="evenodd" d="M35.2715 45.7535L29.7107 48.9785L28.1055 46.1847L33.6667 42.9592L35.2715 45.7535Z" fill="#F9BA48"/>
<path fill-rule="evenodd" clip-rule="evenodd" d="M71.4151 46.1833L69.8103 48.9775L64.249 45.752L65.8538 42.9583L71.4151 46.1833Z" fill="#F9BA48"/>
<path fill-rule="evenodd" clip-rule="evenodd" d="M67.4175 37.0966H73.8385V33.8711H67.4175V37.0966Z" fill="#F9BA48"/>
<path fill-rule="evenodd" clip-rule="evenodd" d="M71.4185 24.7842L65.8572 28.0092L64.252 25.2155L69.8137 21.9905L71.4185 24.7842Z" fill="#F9BA48"/>
<path fill-rule="evenodd" clip-rule="evenodd" d="M63.1887 15.3347L59.9781 20.9217L57.1982 19.3087L60.4083 13.7217L63.1887 15.3347Z" fill="#F9BA48"/>
</g>
</svg>
