<svg width="104" height="104" viewBox="0 0 104 104" fill="none" xmlns="http://www.w3.org/2000/svg">
<path fill-rule="evenodd" clip-rule="evenodd" d="M62.7956 33.3497C61.1088 31.7305 58.8659 30.8388 56.4798 30.8388C54.0943 30.8388 51.8518 31.7305 50.1651 33.3497C48.7812 34.6778 48.0191 36.4438 48.0191 38.3215C48.0191 40.1992 48.7802 41.9652 50.1651 43.2933C52.5197 45.5548 56.3524 45.5538 58.7061 43.2933C59.6529 42.385 60.1743 41.1772 60.1743 39.8921C60.1743 38.6066 59.6534 37.3992 58.7061 36.4904C57.9152 35.7304 56.863 35.3121 55.7438 35.3121C54.625 35.3121 53.5734 35.7304 52.7814 36.4904C51.4044 37.8115 51.4044 39.9618 52.7814 41.2834C53.3494 41.8284 54.1036 42.1285 54.9063 42.1285C55.71 42.1285 56.4641 41.8289 57.0311 41.2834C57.3825 40.9467 57.3825 40.4001 57.0311 40.0625C56.6803 39.7258 56.1108 39.7253 55.7599 40.0625C55.3037 40.4993 54.5098 40.4993 54.0536 40.0625C53.3783 39.4137 53.3783 38.3591 54.0536 37.7108C54.5054 37.277 55.1057 37.0385 55.7443 37.0385C56.3828 37.0385 56.9836 37.277 57.4349 37.7108C58.0421 38.293 58.3758 39.0675 58.3758 39.8911C58.3758 40.7148 58.0421 41.4898 57.4349 42.0719C55.781 43.6596 53.0907 43.6591 51.4367 42.0719C50.3929 41.07 49.8186 39.7378 49.8186 38.321C49.8186 36.9042 50.3924 35.5721 51.4367 34.5701C52.7844 33.2766 54.576 32.5647 56.4803 32.5647C58.3856 32.5647 60.1768 33.2766 61.5239 34.5701C63.2508 36.2274 64.2015 38.4307 64.2015 40.7744C64.2015 43.118 63.2508 45.3208 61.5239 46.9781C59.3089 49.1048 56.3696 50.2731 53.2406 50.2731H53.1735C50.0818 50.2571 47.1983 49.0893 45.0543 46.9851C39.9397 41.9652 39.359 33.9664 43.7038 28.3799C44.0007 27.9977 43.9189 27.4571 43.5215 27.1715C43.1221 26.8865 42.5595 26.9646 42.2625 27.3469C37.3929 33.6082 38.0393 42.5699 43.768 48.1925C46.2496 50.6288 49.5863 51.981 53.1632 52H53.2406C56.8493 52 60.2405 50.6518 62.7956 48.199C64.8621 46.2161 66 43.5789 66 40.7744C66 37.9698 64.8616 35.3326 62.7956 33.3497Z" fill="#F9BA48"/>
<path fill-rule="evenodd" clip-rule="evenodd" d="M19.7008 31.4221H3.28325V29.7682C3.28325 25.2089 6.96619 21.4994 11.4923 21.4994C16.0184 21.4994 19.7008 25.2089 19.7008 29.7682V31.4221ZM4.92555 9.92275C4.92555 6.27437 7.87053 3.30775 11.4923 3.30775C15.1136 3.30775 18.059 6.27437 18.059 9.92275C18.059 13.5711 15.1136 16.5377 11.4923 16.5377C7.87053 16.5377 4.92555 13.5711 4.92555 9.92275ZM22.984 29.7682C22.984 24.8268 19.8878 20.6111 15.5535 18.9523C18.9619 17.3896 21.3422 13.9349 21.3422 9.92275C21.3422 4.45042 16.9247 0 11.4923 0C6.0594 0 1.64193 4.45042 1.64193 9.92275C1.64193 13.9349 4.02219 17.3896 7.43059 18.9523C3.09631 20.6111 -0.000366211 24.8268 -0.000366211 29.7682V34.7294H22.984V29.7682Z" fill="#333333"/>
<path fill-rule="evenodd" clip-rule="evenodd" d="M60.7141 100.666H44.2859V99.0002C44.2859 94.4048 47.9708 90.6664 52.5 90.6664C57.0297 90.6664 60.7141 94.4048 60.7141 99.0002V100.666ZM45.9288 79.0001C45.9288 75.3228 48.8758 72.333 52.5 72.333C56.1242 72.333 59.0717 75.3228 59.0717 79.0001C59.0717 82.6764 56.1242 85.6666 52.5 85.6666C48.8758 85.6666 45.9288 82.6764 45.9288 79.0001ZM56.5645 88.0999C59.9747 86.5246 62.3571 83.043 62.3571 79.0001C62.3571 73.4846 57.9361 69 52.5 69C47.0639 69 42.6429 73.4846 42.6429 79.0001C42.6429 83.043 45.0253 86.5246 48.4355 88.0999C44.0983 89.7712 41 94.0198 41 99.0002V104H64V99.0002C64 94.0198 60.9017 89.7712 56.5645 88.0999Z" fill="#333333"/>
<path fill-rule="evenodd" clip-rule="evenodd" d="M100.715 31.667H84.2859V30.0002C84.2859 25.4053 87.9713 21.6669 92.5005 21.6669C97.0297 21.6669 100.715 25.4053 100.715 30.0002V31.667ZM85.9293 10.0001C85.9293 6.32326 88.8763 3.33352 92.5005 3.33352C96.1242 3.33352 99.0717 6.32326 99.0717 10.0001C99.0717 13.6769 96.1242 16.6666 92.5005 16.6666C88.8763 16.6666 85.9293 13.6769 85.9293 10.0001ZM96.5645 19.0999C99.9752 17.5251 102.357 14.0435 102.357 10.0001C102.357 4.4851 97.9366 0 92.5005 0C87.0639 0 82.6434 4.4851 82.6434 10.0001C82.6434 14.0435 85.0253 17.5251 88.436 19.0999C84.0988 20.7717 81 25.0203 81 30.0002V35H104V30.0002C104 25.0203 100.902 20.7717 96.5645 19.0999Z" fill="#333333"/>
<path fill-rule="evenodd" clip-rule="evenodd" d="M94 40.9009L68.7775 78L66 76.0991L91.2225 39L94 40.9009Z" fill="#333333"/>
<path fill-rule="evenodd" clip-rule="evenodd" d="M38 76.1003L35.2216 78L10 40.9002L12.7789 39L38 76.1003Z" fill="#333333"/>
<path fill-rule="evenodd" clip-rule="evenodd" d="M29 7H76V4H29V7Z" fill="#333333"/>
<path fill-rule="evenodd" clip-rule="evenodd" d="M51 19H54V12H51V19Z" fill="#F9BA48"/>
<path fill-rule="evenodd" clip-rule="evenodd" d="M44 20.4324L41.2147 22L38 16.5676L40.7848 15L44 20.4324Z" fill="#F9BA48"/>
<path fill-rule="evenodd" clip-rule="evenodd" d="M37 26.215L35.4324 29L30 25.785L31.5681 23L37 26.215Z" fill="#F9BA48"/>
<path fill-rule="evenodd" clip-rule="evenodd" d="M27 39H34V36H27V39Z" fill="#F9BA48"/>
<path fill-rule="evenodd" clip-rule="evenodd" d="M37 47.785L31.5681 51L30 48.215L35.4324 45L37 47.785Z" fill="#F9BA48"/>
<path fill-rule="evenodd" clip-rule="evenodd" d="M75 48.215L73.4324 51L68 47.785L69.5676 45L75 48.215Z" fill="#F9BA48"/>
<path fill-rule="evenodd" clip-rule="evenodd" d="M71 39H78V36H71V39Z" fill="#F9BA48"/>
<path fill-rule="evenodd" clip-rule="evenodd" d="M75 25.7853L69.5681 29L68 26.2152L73.4324 23L75 25.7853Z" fill="#F9BA48"/>
<path fill-rule="evenodd" clip-rule="evenodd" d="M66 16.5682L62.7846 22L60 20.4318L63.2154 15L66 16.5682Z" fill="#F9BA48"/>
</svg>
