<svg width="100" height="95" viewBox="0 0 100 95" fill="none" xmlns="http://www.w3.org/2000/svg">
<path fill-rule="evenodd" clip-rule="evenodd" d="M32.5745 21.1388C29.8937 23.7931 28.6151 27.48 29.1015 31.1536C29.7317 35.6224 32.4419 39.6165 36.7346 42.4055L36.8246 42.4648C41.2293 45.2387 46.5033 46.4387 51.7308 45.8564C64.0499 44.5691 73.6209 35.9556 74 25.8267C73.9806 25.5011 73.8261 25.1966 73.5712 24.982C73.3163 24.7673 72.9825 24.6605 72.6449 24.6855C71.9427 24.6131 71.31 25.0967 71.2235 25.7719C70.9107 34.8099 62.3726 42.4922 51.3612 43.6425C46.8597 44.1382 42.3201 43.0997 38.5304 40.7074L38.4498 40.6572C34.7304 38.238 32.3803 34.778 31.8164 30.9026C31.4115 27.8269 32.4883 24.7416 34.7399 22.5265C37.1909 20.0747 40.4861 18.5685 44.0076 18.2905C46.8074 18.0009 49.6246 18.6576 51.9772 20.1483C54.1434 21.4759 55.6109 23.6382 56.0046 26.0823C56.246 27.9462 55.5898 29.8141 54.223 31.1536C52.7409 32.6366 50.7477 33.5472 48.6178 33.7144C45.0974 34.0476 41.8944 31.9707 41.487 29.0767C41.3426 27.9962 41.7196 26.9114 42.5104 26.1325C43.371 25.271 44.5285 24.7418 45.7655 24.6444C46.704 24.5473 47.6484 24.7667 48.4378 25.2652C49.1626 25.7121 49.6542 26.4365 49.7882 27.2554C49.954 28.4377 48.9211 29.5104 47.4807 29.6473C46.5331 29.7386 45.5854 29.1269 45.4528 28.3281C45.2947 27.6693 44.6345 27.2406 43.9413 27.3467C43.609 27.3512 43.2929 27.4863 43.0666 27.7207C42.8402 27.9552 42.7231 28.2686 42.7426 28.5883C42.9059 29.6192 43.5246 30.5314 44.4388 31.0897C45.4284 31.7189 46.6145 31.9965 47.7934 31.8749C50.7263 31.5918 52.8395 29.4099 52.4984 26.9998C52.2704 25.5616 51.4061 24.2893 50.1293 23.5124C48.751 22.6328 47.0961 22.2467 45.4528 22.4215C43.5178 22.5766 41.709 23.4097 40.3688 24.7631C39.148 25.9739 38.5625 27.6525 38.7767 29.3278C39.3595 33.436 43.9129 36.4167 48.9542 35.9374C51.7738 35.7074 54.409 34.4932 56.3647 32.523C58.162 30.7453 59.0187 28.2745 58.6911 25.813C58.2741 22.8597 56.4831 20.2213 53.645 18.3772C50.6969 16.5223 47.1706 15.7137 43.6712 16.0903C39.4575 16.4147 35.5116 18.2099 32.5745 21.1388Z" fill="#F9BA48"/>
<path d="M76.1414 94.9907V81.2186C76.1904 79.4367 77.1604 77.7979 78.7232 76.8573C90.4659 69.2366 98.0096 57.4033 98 44.1148V38.1214C98 18.3281 78.7184 2.25443 54.8107 2.00336C33.979 1.76623 15.6764 14.1202 11.3574 30.9192C10.3876 34.6921 10.1854 38.6118 10.7624 42.4595C10.9302 43.641 10.6432 44.8409 9.95618 45.8305L2.85874 56.2874C0.670483 59.5143 2.85874 63.5687 7.22086 64.3917V64.3917C10.2729 64.9682 12.4372 67.2093 12.4372 69.7899V80.205C12.4372 83.2644 15.4412 85.7426 19.1555 85.7426H25.6291C29.3338 85.7426 32.3474 88.2209 32.3474 91.2803V95" stroke="#333333" stroke-width="3"/>
<path fill-rule="evenodd" clip-rule="evenodd" d="M73.0023 19L69 26H77L73.0023 19Z" fill="#F9BA48"/>
</svg>
