<svg width="104" height="107" viewBox="0 0 104 107" fill="none" xmlns="http://www.w3.org/2000/svg">
<path fill-rule="evenodd" clip-rule="evenodd" d="M21.1691 11.7781C20.7318 11.3243 20.1505 11.0747 19.5319 11.0747C18.9133 11.0747 18.332 11.3243 17.8947 11.7781C17.5355 12.1494 17.338 12.644 17.338 13.1697C17.338 13.6958 17.5355 14.1899 17.8947 14.5622C18.5049 15.1954 19.499 15.1949 20.1092 14.5622C20.3544 14.3076 20.4896 13.9699 20.4896 13.6098C20.4896 13.2502 20.3549 12.9119 20.1092 12.6573C19.9038 12.4449 19.6311 12.3272 19.3407 12.3272C19.0508 12.3272 18.7781 12.4449 18.5732 12.6573C18.216 13.0271 18.216 13.6291 18.5732 13.9994C18.7202 14.1517 18.9157 14.2357 19.1241 14.2357C19.3324 14.2357 19.5275 14.1517 19.6749 13.9994C19.7663 13.9052 19.7663 13.7519 19.6749 13.6571C19.5835 13.5634 19.4366 13.5629 19.3452 13.6571C19.2268 13.7799 19.0214 13.7799 18.9029 13.6571C18.7275 13.4758 18.7275 13.1804 18.9029 12.9985C19.0199 12.8773 19.1756 12.8106 19.3412 12.8106C19.5068 12.8106 19.6626 12.8773 19.7795 12.9985C19.9368 13.162 20.0237 13.379 20.0237 13.6098C20.0237 13.84 19.9368 14.057 19.7795 14.22C19.3506 14.6646 18.6533 14.6646 18.2244 14.22C17.9536 13.9393 17.8047 13.5665 17.8047 13.1697C17.8047 12.7729 17.9536 12.4006 18.2244 12.1199C18.5737 11.7578 19.0381 11.5581 19.5319 11.5581C20.0262 11.5581 20.49 11.7578 20.8394 12.1199C21.287 12.5834 21.5337 13.2007 21.5337 13.8568C21.5337 14.5128 21.287 15.1297 20.8394 15.5937C20.265 16.1891 19.5029 16.5166 18.6921 16.5166H18.675C17.873 16.512 17.1257 16.1845 16.57 15.5957C15.2433 14.1899 15.0929 11.9508 16.2196 10.3866C16.2968 10.2796 16.2751 10.1283 16.172 10.0484C16.0688 9.96789 15.9228 9.9903 15.8457 10.0973C14.5834 11.8505 14.7509 14.3595 16.2363 15.9339C16.88 16.6159 17.7443 16.9944 18.672 17H18.6921C19.6277 17 20.5068 16.6226 21.1691 15.9355C21.7052 15.3803 22 14.6422 22 13.8568C22 13.0714 21.7052 12.3333 21.1691 11.7781Z" fill="#333333"/>
<path fill-rule="evenodd" clip-rule="evenodd" d="M21.1691 11.7781C20.7318 11.3243 20.1505 11.0747 19.5319 11.0747C18.9133 11.0747 18.332 11.3243 17.8947 11.7781C17.5355 12.1494 17.338 12.644 17.338 13.1697C17.338 13.6958 17.5355 14.1899 17.8947 14.5622C18.5049 15.1954 19.499 15.1949 20.1092 14.5622C20.3544 14.3076 20.4896 13.9699 20.4896 13.6098C20.4896 13.2502 20.3549 12.9119 20.1092 12.6573C19.9038 12.4449 19.6311 12.3272 19.3407 12.3272C19.0508 12.3272 18.7781 12.4449 18.5732 12.6573C18.216 13.0271 18.216 13.6291 18.5732 13.9994C18.7202 14.1517 18.9157 14.2357 19.1241 14.2357C19.3324 14.2357 19.5275 14.1517 19.6749 13.9994C19.7663 13.9052 19.7663 13.7519 19.6749 13.6571C19.5835 13.5634 19.4366 13.5629 19.3452 13.6571C19.2268 13.7799 19.0214 13.7799 18.9029 13.6571C18.7275 13.4758 18.7275 13.1804 18.9029 12.9985C19.0199 12.8773 19.1756 12.8106 19.3412 12.8106C19.5068 12.8106 19.6626 12.8773 19.7795 12.9985C19.9368 13.162 20.0237 13.379 20.0237 13.6098C20.0237 13.84 19.9368 14.057 19.7795 14.22C19.3506 14.6646 18.6533 14.6646 18.2244 14.22C17.9536 13.9393 17.8047 13.5665 17.8047 13.1697C17.8047 12.7729 17.9536 12.4006 18.2244 12.1199C18.5737 11.7578 19.0381 11.5581 19.5319 11.5581C20.0262 11.5581 20.49 11.7578 20.8394 12.1199C21.287 12.5834 21.5337 13.2007 21.5337 13.8568C21.5337 14.5128 21.287 15.1297 20.8394 15.5937C20.265 16.1891 19.5029 16.5166 18.6921 16.5166H18.675C17.873 16.512 17.1257 16.1845 16.57 15.5957C15.2433 14.1899 15.0929 11.9508 16.2196 10.3866C16.2968 10.2796 16.2751 10.1283 16.172 10.0484C16.0688 9.96789 15.9228 9.9903 15.8457 10.0973C14.5834 11.8505 14.7509 14.3595 16.2363 15.9339C16.88 16.6159 17.7443 16.9944 18.672 17H18.6921C19.6277 17 20.5068 16.6226 21.1691 15.9355C21.7052 15.3803 22 14.6422 22 13.8568C22 13.0714 21.7052 12.3333 21.1691 11.7781Z" stroke="#333333" stroke-width="0.25"/>
<path fill-rule="evenodd" clip-rule="evenodd" d="M38.1691 22.7778C37.7318 22.3245 37.1505 22.075 36.5319 22.075C35.9133 22.075 35.332 22.3245 34.8947 22.7778C34.5355 23.1496 34.3384 23.6442 34.3384 24.1698C34.3384 24.696 34.5355 25.19 34.8947 25.5623C35.5049 26.1949 36.499 26.1949 37.1092 25.5623C37.3544 25.3077 37.4896 24.9695 37.4896 24.6099C37.4896 24.2503 37.3549 23.9121 37.1092 23.6574C36.9038 23.4445 36.6311 23.3274 36.3407 23.3274C36.0508 23.3274 35.7781 23.4445 35.5732 23.6574C35.216 24.0272 35.216 24.6293 35.5732 24.999C35.7202 25.1518 35.9157 25.2359 36.1241 25.2359C36.3324 25.2359 36.5275 25.1518 36.6749 24.999C36.7663 24.9053 36.7663 24.752 36.6749 24.6573C36.5835 24.563 36.4366 24.563 36.3452 24.6573C36.2268 24.78 36.0214 24.78 35.9029 24.6573C35.7275 24.4759 35.7275 24.1805 35.9029 23.9987C36.0199 23.8775 36.1756 23.8108 36.3412 23.8108C36.5068 23.8108 36.6626 23.8775 36.7795 23.9987C36.9368 24.1622 37.0237 24.3792 37.0237 24.6094C37.0237 24.8401 36.9368 25.0571 36.7795 25.2201C36.3506 25.6647 35.6533 25.6642 35.2244 25.2201C34.9536 24.9394 34.8047 24.5666 34.8047 24.1698C34.8047 23.7731 34.9536 23.4002 35.2244 23.1196C35.5737 22.7575 36.0381 22.5578 36.5319 22.5578C37.0262 22.5578 37.49 22.7575 37.8394 23.1196C38.287 23.5836 38.5337 24.2004 38.5337 24.8569C38.5337 25.5129 38.287 26.1297 37.8394 26.5937C37.2655 27.1891 36.5029 27.5166 35.6921 27.5166H35.675C34.873 27.5116 34.1257 27.1846 33.57 26.5958C32.2433 25.19 32.0934 22.951 33.2196 21.3869C33.2968 21.2799 33.2751 21.1281 33.172 21.0481C33.0688 20.9682 32.9228 20.9901 32.8457 21.097C31.5834 22.8507 31.7509 25.3591 33.2363 26.9335C33.88 27.616 34.7443 27.9944 35.672 28H35.6921C36.6277 28 37.5068 27.6226 38.1691 26.9355C38.7052 26.3803 39 25.6418 39 24.8569C39 24.0715 38.7052 23.3335 38.1691 22.7778Z" fill="#333333"/>
<path fill-rule="evenodd" clip-rule="evenodd" d="M38.1691 22.7778C37.7318 22.3245 37.1505 22.075 36.5319 22.075C35.9133 22.075 35.332 22.3245 34.8947 22.7778C34.5355 23.1496 34.3384 23.6442 34.3384 24.1698C34.3384 24.696 34.5355 25.19 34.8947 25.5623C35.5049 26.1949 36.499 26.1949 37.1092 25.5623C37.3544 25.3077 37.4896 24.9695 37.4896 24.6099C37.4896 24.2503 37.3549 23.9121 37.1092 23.6574C36.9038 23.4445 36.6311 23.3274 36.3407 23.3274C36.0508 23.3274 35.7781 23.4445 35.5732 23.6574C35.216 24.0272 35.216 24.6293 35.5732 24.999C35.7202 25.1518 35.9157 25.2359 36.1241 25.2359C36.3324 25.2359 36.5275 25.1518 36.6749 24.999C36.7663 24.9053 36.7663 24.752 36.6749 24.6573C36.5835 24.563 36.4366 24.563 36.3452 24.6573C36.2268 24.78 36.0214 24.78 35.9029 24.6573C35.7275 24.4759 35.7275 24.1805 35.9029 23.9987C36.0199 23.8775 36.1756 23.8108 36.3412 23.8108C36.5068 23.8108 36.6626 23.8775 36.7795 23.9987C36.9368 24.1622 37.0237 24.3792 37.0237 24.6094C37.0237 24.8401 36.9368 25.0571 36.7795 25.2201C36.3506 25.6647 35.6533 25.6642 35.2244 25.2201C34.9536 24.9394 34.8047 24.5666 34.8047 24.1698C34.8047 23.7731 34.9536 23.4002 35.2244 23.1196C35.5737 22.7575 36.0381 22.5578 36.5319 22.5578C37.0262 22.5578 37.49 22.7575 37.8394 23.1196C38.287 23.5836 38.5337 24.2004 38.5337 24.8569C38.5337 25.5129 38.287 26.1297 37.8394 26.5937C37.2655 27.1891 36.5029 27.5166 35.6921 27.5166H35.675C34.873 27.5116 34.1257 27.1846 33.57 26.5958C32.2433 25.19 32.0934 22.951 33.2196 21.3869C33.2968 21.2799 33.2751 21.1281 33.172 21.0481C33.0688 20.9682 32.9228 20.9901 32.8457 21.097C31.5834 22.8507 31.7509 25.3591 33.2363 26.9335C33.88 27.616 34.7443 27.9944 35.672 28H35.6921C36.6277 28 37.5068 27.6226 38.1691 26.9355C38.7052 26.3803 39 25.6418 39 24.8569C39 24.0715 38.7052 23.3335 38.1691 22.7778Z" stroke="#333333" stroke-width="0.25"/>
<path fill-rule="evenodd" clip-rule="evenodd" d="M72.1691 22.7778C71.7318 22.3245 71.1505 22.075 70.5319 22.075C69.9133 22.075 69.332 22.3245 68.8947 22.7778C68.5355 23.1496 68.3384 23.6442 68.3384 24.1698C68.3384 24.696 68.5355 25.19 68.8947 25.5623C69.5049 26.1949 70.499 26.1949 71.1092 25.5623C71.3544 25.3077 71.4896 24.9695 71.4896 24.6099C71.4896 24.2503 71.3549 23.9121 71.1092 23.6574C70.9043 23.4445 70.6311 23.3274 70.3407 23.3274C70.0508 23.3274 69.7781 23.4445 69.5732 23.6574C69.216 24.0272 69.216 24.6293 69.5732 24.999C69.7202 25.1518 69.9157 25.2359 70.1241 25.2359C70.3324 25.2359 70.5275 25.1518 70.6749 24.999C70.7663 24.9053 70.7663 24.752 70.6749 24.6573C70.5835 24.563 70.4366 24.563 70.3452 24.6573C70.2272 24.78 70.0214 24.78 69.9029 24.6573C69.7275 24.4759 69.7275 24.1805 69.9029 23.9987C70.0199 23.8775 70.1756 23.8108 70.3412 23.8108C70.5068 23.8108 70.6626 23.8775 70.7795 23.9987C70.9368 24.1622 71.0237 24.3792 71.0237 24.6094C71.0237 24.8401 70.9368 25.0571 70.7795 25.2201C70.3506 25.6647 69.6533 25.6642 69.2244 25.2201C68.9536 24.9394 68.8047 24.5666 68.8047 24.1698C68.8047 23.7731 68.9536 23.4002 69.2244 23.1196C69.5737 22.7575 70.0381 22.5578 70.5319 22.5578C71.0262 22.5578 71.4905 22.7575 71.8399 23.1196C72.287 23.5836 72.5337 24.2004 72.5337 24.8569C72.5337 25.5129 72.287 26.1297 71.8399 26.5937C71.2655 27.1891 70.5029 27.5166 69.6921 27.5166H69.675C68.873 27.5116 68.1257 27.1846 67.57 26.5958C66.2433 25.19 66.0934 22.951 67.2196 21.3869C67.2968 21.2799 67.2751 21.1281 67.172 21.0481C67.0688 20.9682 66.9228 20.9901 66.8457 21.097C65.5834 22.8507 65.7509 25.3591 67.2363 26.9335C67.88 27.616 68.7443 27.9944 69.672 28H69.6921C70.6277 28 71.5068 27.6226 72.1691 26.9355C72.7052 26.3803 73 25.6418 73 24.8569C73 24.0715 72.7052 23.3335 72.1691 22.7778Z" fill="#333333"/>
<path fill-rule="evenodd" clip-rule="evenodd" d="M72.1691 22.7778C71.7318 22.3245 71.1505 22.075 70.5319 22.075C69.9133 22.075 69.332 22.3245 68.8947 22.7778C68.5355 23.1496 68.3384 23.6442 68.3384 24.1698C68.3384 24.696 68.5355 25.19 68.8947 25.5623C69.5049 26.1949 70.499 26.1949 71.1092 25.5623C71.3544 25.3077 71.4896 24.9695 71.4896 24.6099C71.4896 24.2503 71.3549 23.9121 71.1092 23.6574C70.9043 23.4445 70.6311 23.3274 70.3407 23.3274C70.0508 23.3274 69.7781 23.4445 69.5732 23.6574C69.216 24.0272 69.216 24.6293 69.5732 24.999C69.7202 25.1518 69.9157 25.2359 70.1241 25.2359C70.3324 25.2359 70.5275 25.1518 70.6749 24.999C70.7663 24.9053 70.7663 24.752 70.6749 24.6573C70.5835 24.563 70.4366 24.563 70.3452 24.6573C70.2272 24.78 70.0214 24.78 69.9029 24.6573C69.7275 24.4759 69.7275 24.1805 69.9029 23.9987C70.0199 23.8775 70.1756 23.8108 70.3412 23.8108C70.5068 23.8108 70.6626 23.8775 70.7795 23.9987C70.9368 24.1622 71.0237 24.3792 71.0237 24.6094C71.0237 24.8401 70.9368 25.0571 70.7795 25.2201C70.3506 25.6647 69.6533 25.6642 69.2244 25.2201C68.9536 24.9394 68.8047 24.5666 68.8047 24.1698C68.8047 23.7731 68.9536 23.4002 69.2244 23.1196C69.5737 22.7575 70.0381 22.5578 70.5319 22.5578C71.0262 22.5578 71.4905 22.7575 71.8399 23.1196C72.287 23.5836 72.5337 24.2004 72.5337 24.8569C72.5337 25.5129 72.287 26.1297 71.8399 26.5937C71.2655 27.1891 70.5029 27.5166 69.6921 27.5166H69.675C68.873 27.5116 68.1257 27.1846 67.57 26.5958C66.2433 25.19 66.0934 22.951 67.2196 21.3869C67.2968 21.2799 67.2751 21.1281 67.172 21.0481C67.0688 20.9682 66.9228 20.9901 66.8457 21.097C65.5834 22.8507 65.7509 25.3591 67.2363 26.9335C67.88 27.616 68.7443 27.9944 69.672 28H69.6921C70.6277 28 71.5068 27.6226 72.1691 26.9355C72.7052 26.3803 73 25.6418 73 24.8569C73 24.0715 72.7052 23.3335 72.1691 22.7778Z" stroke="#333333" stroke-width="0.25"/>
<path fill-rule="evenodd" clip-rule="evenodd" d="M88.1696 10.778C87.7318 10.3246 87.1505 10.075 86.5319 10.075C85.9133 10.075 85.332 10.3246 84.8947 10.778C84.5355 11.1498 84.3384 11.6444 84.3384 12.1701C84.3384 12.6962 84.5355 13.1903 84.8947 13.5622C85.5049 14.1953 86.499 14.1953 87.1092 13.5622C87.3544 13.308 87.4896 12.9698 87.4896 12.6102C87.4896 12.25 87.3549 11.9118 87.1092 11.6576C86.9043 11.4447 86.6311 11.3276 86.3407 11.3276C86.0508 11.3276 85.7786 11.4447 85.5732 11.6576C85.216 12.0274 85.216 12.6295 85.5732 12.9993C85.7206 13.1521 85.9157 13.2362 86.1241 13.2362C86.3324 13.2362 86.5275 13.1521 86.6749 12.9993C86.7663 12.9051 86.7663 12.7523 86.6749 12.6575C86.5835 12.5633 86.4366 12.5633 86.3452 12.6575C86.2272 12.7803 86.0214 12.7803 85.9029 12.6575C85.7275 12.4762 85.7275 12.1808 85.9029 11.9989C86.0199 11.8777 86.1756 11.811 86.3412 11.811C86.5068 11.811 86.6626 11.8777 86.7795 11.9989C86.9368 12.1624 87.0237 12.3794 87.0237 12.6096C87.0237 12.8404 86.9368 13.0574 86.7795 13.2204C86.3506 13.6645 85.6533 13.6645 85.2244 13.2204C84.9536 12.9397 84.8047 12.5669 84.8047 12.1696C84.8047 11.7733 84.9536 11.4004 85.2244 11.1197C85.5737 10.7576 86.0381 10.5579 86.5319 10.5579C87.0262 10.5579 87.4905 10.7576 87.8399 11.1197C88.287 11.5838 88.5337 12.2006 88.5337 12.8567C88.5337 13.5133 88.287 14.1301 87.8399 14.5941C87.2655 15.1896 86.5029 15.5166 85.6921 15.5166H85.675C84.873 15.512 84.1257 15.185 83.57 14.5957C82.2433 13.1903 82.0934 10.9506 83.2196 9.38688C83.2968 9.27991 83.2756 9.12812 83.172 9.04815C83.0688 8.96818 82.9228 8.99008 82.8457 9.09705C81.5834 10.8508 81.7509 13.3594 83.2363 14.9339C83.88 15.6164 84.7443 15.9949 85.672 16H85.6921C86.6277 16 87.5067 15.6226 88.1696 14.9359C88.7052 14.3802 89 13.6421 89 12.8567C89 12.0718 88.7052 11.3332 88.1696 10.778Z" fill="#333333"/>
<path fill-rule="evenodd" clip-rule="evenodd" d="M88.1696 10.778C87.7318 10.3246 87.1505 10.075 86.5319 10.075C85.9133 10.075 85.332 10.3246 84.8947 10.778C84.5355 11.1498 84.3384 11.6444 84.3384 12.1701C84.3384 12.6962 84.5355 13.1903 84.8947 13.5622C85.5049 14.1953 86.499 14.1953 87.1092 13.5622C87.3544 13.308 87.4896 12.9698 87.4896 12.6102C87.4896 12.25 87.3549 11.9118 87.1092 11.6576C86.9043 11.4447 86.6311 11.3276 86.3407 11.3276C86.0508 11.3276 85.7786 11.4447 85.5732 11.6576C85.216 12.0274 85.216 12.6295 85.5732 12.9993C85.7206 13.1521 85.9157 13.2362 86.1241 13.2362C86.3324 13.2362 86.5275 13.1521 86.6749 12.9993C86.7663 12.9051 86.7663 12.7523 86.6749 12.6575C86.5835 12.5633 86.4366 12.5633 86.3452 12.6575C86.2272 12.7803 86.0214 12.7803 85.9029 12.6575C85.7275 12.4762 85.7275 12.1808 85.9029 11.9989C86.0199 11.8777 86.1756 11.811 86.3412 11.811C86.5068 11.811 86.6626 11.8777 86.7795 11.9989C86.9368 12.1624 87.0237 12.3794 87.0237 12.6096C87.0237 12.8404 86.9368 13.0574 86.7795 13.2204C86.3506 13.6645 85.6533 13.6645 85.2244 13.2204C84.9536 12.9397 84.8047 12.5669 84.8047 12.1696C84.8047 11.7733 84.9536 11.4004 85.2244 11.1197C85.5737 10.7576 86.0381 10.5579 86.5319 10.5579C87.0262 10.5579 87.4905 10.7576 87.8399 11.1197C88.287 11.5838 88.5337 12.2006 88.5337 12.8567C88.5337 13.5133 88.287 14.1301 87.8399 14.5941C87.2655 15.1896 86.5029 15.5166 85.6921 15.5166H85.675C84.873 15.512 84.1257 15.185 83.57 14.5957C82.2433 13.1903 82.0934 10.9506 83.2196 9.38688C83.2968 9.27991 83.2756 9.12812 83.172 9.04815C83.0688 8.96818 82.9228 8.99008 82.8457 9.09705C81.5834 10.8508 81.7509 13.3594 83.2363 14.9339C83.88 15.6164 84.7443 15.9949 85.672 16H85.6921C86.6277 16 87.5067 15.6226 88.1696 14.9359C88.7052 14.3802 89 13.6421 89 12.8567C89 12.0718 88.7052 11.3332 88.1696 10.778Z" stroke="#333333" stroke-width="0.25"/>
<path fill-rule="evenodd" clip-rule="evenodd" d="M59 48H62V43H59V48Z" fill="#333333"/>
<path fill-rule="evenodd" clip-rule="evenodd" d="M35.0002 30.875C31.323 30.875 28.3332 27.8478 28.3332 24.1247C28.3332 20.4021 31.323 17.3749 35.0002 17.3749C38.6769 17.3749 41.6667 20.4021 41.6667 24.1247C41.6667 27.8478 38.6769 30.875 35.0002 30.875ZM16.6668 44.8136V54.4997V58.7186V77.281C16.6668 78.6765 15.5448 79.812 14.1666 79.812C12.7878 79.812 11.6664 78.6765 11.6664 77.281V46.906V46.062V30.875H8.33315V46.062V46.906C8.33315 48.3014 7.2117 49.4369 5.83346 49.4369C4.4547 49.4369 3.33326 48.3014 3.33326 46.906V33.0009C3.33326 29.0369 6.51825 25.8126 10.4329 25.8126H25.1518C25.4733 27.7395 26.3313 29.4795 27.5684 30.875H24.9999V34.464C20.2502 35.4514 16.6668 39.7177 16.6668 44.8136ZM22.5003 64.6249C23.398 64.6249 24.2403 64.4 24.9999 64.0322V77.281C24.9999 78.6765 23.8785 79.812 22.5003 79.812C21.1215 79.812 20.0001 78.6765 20.0001 77.281V64.0322C20.7603 64.4 21.6015 64.6249 22.5003 64.6249ZM35.0002 14C30.0549 14 25.9482 17.6566 25.1497 22.4377H18.3334H10.4329C4.68144 22.4377 0 27.1777 0 33.0009V46.906C0 50.1632 2.61637 52.8123 5.83346 52.8123C6.73173 52.8123 7.57345 52.5879 8.33314 52.2201V77.281C8.33314 80.5383 10.95 83.1868 14.1666 83.1868C15.7996 83.1868 17.2731 82.5002 18.3334 81.4019C19.3932 82.5002 20.8667 83.1868 22.5003 83.1868C23.398 83.1868 24.2403 82.963 24.9999 82.5951V89.0937C24.9999 92.3504 27.6168 95 30.8334 95C32.4664 95 33.9399 94.3129 35.0002 93.2145C36.06 94.3129 37.5335 95 39.1671 95C42.3831 95 45 92.3504 45 89.0937H41.6667C41.6667 90.4891 40.5453 91.6246 39.1671 91.6246C37.7888 91.6246 36.6669 90.4891 36.6669 89.0937V66.3119H33.3336V89.0937C33.3336 90.4891 32.2116 91.6246 30.8334 91.6246C29.4546 91.6246 28.3332 90.4891 28.3332 89.0937V58.7186V57.8746V42.6871H24.9999V57.8746V58.7186C24.9999 60.1141 23.8785 61.25 22.5003 61.25C21.1215 61.25 20.0001 60.1141 20.0001 58.7186V54.4997V44.8136C20.0001 40.8495 23.185 37.6248 27.1002 37.6248H42.9003V34.2499H35.0002H28.3332V31.6514C30.1053 33.2609 32.4368 34.2499 35.0002 34.2499C40.5147 34.2499 45 29.7086 45 24.1247C45 18.5408 40.5147 14 35.0002 14Z" fill="#333333"/>
<path fill-rule="evenodd" clip-rule="evenodd" d="M42 48H45V43H42V48Z" fill="#333333"/>
<path fill-rule="evenodd" clip-rule="evenodd" d="M19.0003 19.6668C15.3231 19.6668 12.3332 16.6766 12.3332 13C12.3332 9.32343 15.3231 6.33367 19.0003 6.33367C22.6769 6.33367 25.6668 9.32343 25.6668 13C25.6668 16.6766 22.6769 19.6668 19.0003 19.6668ZM29 13C29 7.48515 24.5147 3 19.0003 3C13.4853 3 9 7.48515 9 13C9 18.5149 13.4853 23 19.0003 23C24.5147 23 29 18.5149 29 13Z" fill="#333333"/>
<path fill-rule="evenodd" clip-rule="evenodd" d="M85.0003 19.6668C81.3231 19.6668 78.3332 16.6766 78.3332 13C78.3332 9.32343 81.3231 6.33367 85.0003 6.33367C88.6769 6.33367 91.6668 9.32343 91.6668 13C91.6668 16.6766 88.6769 19.6668 85.0003 19.6668ZM95 13C95 7.48515 90.5152 3 85.0003 3C79.4853 3 75 7.48515 75 13C75 18.5149 79.4853 23 85.0003 23C90.5152 23 95 18.5149 95 13Z" fill="#333333"/>
<path fill-rule="evenodd" clip-rule="evenodd" d="M100.667 46.906C100.667 48.3014 99.5453 49.4369 98.1671 49.4369C96.7888 49.4369 95.6669 48.3014 95.6669 46.906V46.062V30.875H92.3336V46.062V46.906V77.281C92.3336 78.6765 91.2116 79.812 89.8334 79.812C88.4552 79.812 87.3332 78.6765 87.3332 77.281V58.7181V54.4997V44.813C87.3332 39.7172 83.7503 35.4514 79.0001 34.466V30.875H76.4331C77.6697 29.4795 78.5282 27.7395 78.8503 25.8121H93.5682C97.4833 25.8121 100.668 29.0369 100.668 33.0009V46.906H100.667ZM81.5003 79.812C80.122 79.812 79.0001 78.6765 79.0001 77.281V64.0322C79.7603 64.4 80.6015 64.6249 81.5003 64.6249C82.3985 64.6249 83.2403 64.4 83.9999 64.0322V77.281C83.9999 78.6765 82.8785 79.812 81.5003 79.812ZM69.0003 30.875C65.3231 30.875 62.3333 27.8478 62.3333 24.1247C62.3333 20.4021 65.3231 17.3749 69.0003 17.3749C72.6764 17.3749 75.6668 20.4021 75.6668 24.1247C75.6668 27.8478 72.6764 30.875 69.0003 30.875ZM93.5666 22.4372H85.6671H78.8503C78.0534 17.6566 73.9467 14 69.0003 14C63.4848 14 59 18.5408 59 24.1247C59 29.7086 63.4848 34.2499 69.0003 34.2499C71.5632 34.2499 73.8947 33.2609 75.6668 31.6514V34.2499H69.0003H61.1002V37.6248H76.8998C80.815 37.6248 83.9999 40.8495 83.9999 44.813V54.4997V58.7181C83.9999 60.1141 82.8785 61.25 81.5003 61.25C80.122 61.25 79.0001 60.1141 79.0001 58.7181V57.8746V42.6871H75.6668V57.8746V58.7181V89.0932C75.6668 90.4886 74.5448 91.6246 73.1666 91.6246C71.7884 91.6246 70.6664 90.4886 70.6664 89.0932V66.3119H67.3331V89.0932C67.3331 90.4886 66.2117 91.6246 64.8335 91.6246C63.4552 91.6246 62.3333 90.4886 62.3333 89.0932H59C59 92.3504 61.6164 95 64.8335 95C66.4665 95 67.94 94.3129 69.0003 93.2145C70.0601 94.3129 71.5331 95 73.1666 95C76.3832 95 79.0001 92.3504 79.0001 89.0932V82.5951C79.7603 82.963 80.6015 83.1868 81.5003 83.1868C83.1333 83.1868 84.6063 82.5002 85.6671 81.4019C86.7269 82.5002 88.1999 83.1868 89.8334 83.1868C93.05 83.1868 95.6669 80.5378 95.6669 77.281V52.2201C96.4271 52.5879 97.2683 52.8123 98.1671 52.8123C101.383 52.8123 104 50.1627 104 46.906V33.0009C104 27.1777 99.3186 22.4372 93.5666 22.4372Z" fill="#333333"/>
<path fill-rule="evenodd" clip-rule="evenodd" d="M62 36.0003C62 30.4853 57.5147 26 52.0003 26C46.4853 26 42 30.4853 42 36.0003C42 41.5147 46.4853 46 52.0003 46C57.5147 46 62 41.5147 62 36.0003Z" fill="#F9BA48"/>
<path fill-rule="evenodd" clip-rule="evenodd" d="M59.4718 46H51.5H43.5282C37.724 46 33 50.7594 33 56.6077V70.5694C33 73.8395 35.6401 76.5 38.8865 76.5C39.7929 76.5 40.6423 76.2747 41.4089 75.9048V101.069C41.4089 104.34 44.0495 107 47.2953 107C48.9432 107 50.4301 106.311 51.5 105.207C52.5694 106.311 54.0563 107 55.7047 107C58.95 107 61.5906 104.34 61.5906 101.069V75.9048C62.3577 76.2742 63.2071 76.5 64.1135 76.5C67.3593 76.5 70 73.8395 70 70.5694V56.6077C70 50.7594 65.2755 46 59.4718 46Z" fill="#F9BA48"/>
<path fill-rule="evenodd" clip-rule="evenodd" d="M54.1691 33.7781C53.7318 33.3243 53.1505 33.0747 52.5319 33.0747C51.9133 33.0747 51.332 33.3243 50.8947 33.7781C50.5355 34.1494 50.3384 34.644 50.3384 35.1697C50.3384 35.6958 50.5355 36.1899 50.8947 36.5622C51.5049 37.1954 52.499 37.1949 53.1092 36.5622C53.3544 36.3076 53.4896 35.9699 53.4896 35.6098C53.4896 35.2502 53.3549 34.9119 53.1092 34.6573C52.9043 34.4449 52.6311 34.3272 52.3407 34.3272C52.0508 34.3272 51.7781 34.4449 51.5732 34.6573C51.216 35.0271 51.216 35.6291 51.5732 35.9994C51.7202 36.1517 51.9157 36.2357 52.1241 36.2357C52.3324 36.2357 52.5275 36.1517 52.6749 35.9994C52.7663 35.9052 52.7663 35.7519 52.6749 35.6571C52.5835 35.5634 52.4366 35.5629 52.3452 35.6571C52.2268 35.7799 52.0214 35.7799 51.9029 35.6571C51.7275 35.4758 51.7275 35.1804 51.9029 34.9985C52.0199 34.8773 52.1756 34.8106 52.3412 34.8106C52.5068 34.8106 52.6626 34.8773 52.7795 34.9985C52.9368 35.162 53.0237 35.379 53.0237 35.6098C53.0237 35.84 52.9368 36.057 52.7795 36.22C52.3506 36.6646 51.6533 36.6646 51.2244 36.22C50.9536 35.9393 50.8047 35.5665 50.8047 35.1697C50.8047 34.7729 50.9536 34.4006 51.2244 34.1199C51.5737 33.7578 52.0381 33.5581 52.5319 33.5581C53.0262 33.5581 53.4905 33.7578 53.8399 34.1199C54.287 34.5834 54.5337 35.2007 54.5337 35.8568C54.5337 36.5128 54.287 37.1297 53.8399 37.5937C53.2655 38.1891 52.5029 38.5166 51.6921 38.5166H51.675C50.873 38.512 50.1257 38.1845 49.57 37.5957C48.2433 36.1899 48.0934 33.9508 49.2196 32.3866C49.2968 32.2796 49.2751 32.1283 49.172 32.0484C49.0688 31.9679 48.9228 31.9903 48.8457 32.0973C47.5834 33.8505 47.7509 36.3595 49.2363 37.9339C49.88 38.6159 50.7443 38.9944 51.672 39H51.6921C52.6277 39 53.5068 38.6226 54.1691 37.9355C54.7052 37.3803 55 36.6422 55 35.8568C55 35.0714 54.7052 34.3333 54.1691 33.7781Z" fill="white"/>
<path fill-rule="evenodd" clip-rule="evenodd" d="M54.1691 33.7781C53.7318 33.3243 53.1505 33.0747 52.5319 33.0747C51.9133 33.0747 51.332 33.3243 50.8947 33.7781C50.5355 34.1494 50.3384 34.644 50.3384 35.1697C50.3384 35.6958 50.5355 36.1899 50.8947 36.5622C51.5049 37.1954 52.499 37.1949 53.1092 36.5622C53.3544 36.3076 53.4896 35.9699 53.4896 35.6098C53.4896 35.2502 53.3549 34.9119 53.1092 34.6573C52.9043 34.4449 52.6311 34.3272 52.3407 34.3272C52.0508 34.3272 51.7781 34.4449 51.5732 34.6573C51.216 35.0271 51.216 35.6291 51.5732 35.9994C51.7202 36.1517 51.9157 36.2357 52.1241 36.2357C52.3324 36.2357 52.5275 36.1517 52.6749 35.9994C52.7663 35.9052 52.7663 35.7519 52.6749 35.6571C52.5835 35.5634 52.4366 35.5629 52.3452 35.6571C52.2268 35.7799 52.0214 35.7799 51.9029 35.6571C51.7275 35.4758 51.7275 35.1804 51.9029 34.9985C52.0199 34.8773 52.1756 34.8106 52.3412 34.8106C52.5068 34.8106 52.6626 34.8773 52.7795 34.9985C52.9368 35.162 53.0237 35.379 53.0237 35.6098C53.0237 35.84 52.9368 36.057 52.7795 36.22C52.3506 36.6646 51.6533 36.6646 51.2244 36.22C50.9536 35.9393 50.8047 35.5665 50.8047 35.1697C50.8047 34.7729 50.9536 34.4006 51.2244 34.1199C51.5737 33.7578 52.0381 33.5581 52.5319 33.5581C53.0262 33.5581 53.4905 33.7578 53.8399 34.1199C54.287 34.5834 54.5337 35.2007 54.5337 35.8568C54.5337 36.5128 54.287 37.1297 53.8399 37.5937C53.2655 38.1891 52.5029 38.5166 51.6921 38.5166H51.675C50.873 38.512 50.1257 38.1845 49.57 37.5957C48.2433 36.1899 48.0934 33.9508 49.2196 32.3866C49.2968 32.2796 49.2751 32.1283 49.172 32.0484C49.0688 31.9679 48.9228 31.9903 48.8457 32.0973C47.5834 33.8505 47.7509 36.3595 49.2363 37.9339C49.88 38.6159 50.7443 38.9944 51.672 39H51.6921C52.6277 39 53.5068 38.6226 54.1691 37.9355C54.7052 37.3803 55 36.6422 55 35.8568C55 35.0714 54.7052 34.3333 54.1691 33.7781Z" stroke="white" stroke-width="0.25"/>
<path fill-rule="evenodd" clip-rule="evenodd" d="M59 11.7498C59 8.02735 56.0843 5 52.5 5C48.9152 5 46 8.02735 46 11.7498C46 13.9992 47.0969 16.1087 48.8883 17.3559V20H56.1112V17.3559" fill="#F9BA48"/>
<path fill-rule="evenodd" clip-rule="evenodd" d="M52.5003 13C51.6717 13 51 12.3288 51 11.5003C51 10.6717 51.6717 10 52.5003 10C53.3288 10 54 10.6717 54 11.5003C54 12.3288 53.3288 13 52.5003 13Z" fill="#F9BA48"/>
<path fill-rule="evenodd" clip-rule="evenodd" d="M55.2501 22.5001H49.7499C49.5342 22.5001 49.3575 22.3312 49.3575 22.1245C49.3575 21.9189 49.5342 21.7501 49.7499 21.7501H55.2501C55.4658 21.7501 55.6431 21.9189 55.6431 22.1245C55.6431 22.3312 55.4658 22.5001 55.2501 22.5001ZM48.9646 19.4996H56.036C56.2521 19.4996 56.4289 19.6685 56.4289 19.8751C56.4289 20.0813 56.2521 20.2496 56.036 20.2496H55.2501H49.7499H48.9646C48.7484 20.2496 48.5717 20.0813 48.5717 19.8751C48.5717 19.6685 48.7484 19.4996 48.9646 19.4996ZM56.036 18.0002H53.2856V13.3616C54.1984 13.0513 54.8572 12.2262 54.8572 11.2494C54.8572 10.0095 53.7995 9 52.5003 9C51.2005 9 50.1433 10.0095 50.1433 11.2494C50.1433 12.2262 50.8027 13.0513 51.7144 13.3616V18.0002H48.9646C47.881 18.0002 47 18.8408 47 19.8751C47 20.5428 47.3697 21.1244 47.9199 21.4574C47.8366 21.6651 47.7858 21.8884 47.7858 22.1245C47.7858 23.1589 48.6668 24 49.7499 24H55.2501C56.3338 24 57.2147 23.1589 57.2147 22.1245C57.2147 21.8884 57.1634 21.6651 57.0801 21.4574C57.6309 21.1244 58 20.5428 58 19.8751C58 18.8408 57.119 18.0002 56.036 18.0002Z" fill="#F9BA48"/>
<path fill-rule="evenodd" clip-rule="evenodd" d="M53 0V3H52V0" fill="#F9BA48"/>
<path fill-rule="evenodd" clip-rule="evenodd" d="M49 4.32807L47.607 5L46 2.67239L47.3924 2L49 4.32807Z" fill="#F9BA48"/>
<path fill-rule="evenodd" clip-rule="evenodd" d="M45 6.6077L44.3282 8L42 6.3923L42.6718 5L45 6.6077Z" fill="#F9BA48"/>
<path fill-rule="evenodd" clip-rule="evenodd" d="M41 12H44V11H41V12Z" fill="#F9BA48"/>
<path fill-rule="evenodd" clip-rule="evenodd" d="M44.3282 15L45 16.3929L42.6718 18L42 16.6077L44.3282 15Z" fill="#F9BA48"/>
<path fill-rule="evenodd" clip-rule="evenodd" d="M62 16.6077L61.3279 18L59 16.3923L59.6716 15L62 16.6077Z" fill="#F9BA48"/>
<path fill-rule="evenodd" clip-rule="evenodd" d="M63 12H60V11H63" fill="#F9BA48"/>
<path fill-rule="evenodd" clip-rule="evenodd" d="M62 6.3923L59.6721 8L59 6.6077L61.3284 5L62 6.3923Z" fill="#F9BA48"/>
<path fill-rule="evenodd" clip-rule="evenodd" d="M58 2.67203L56.3924 5L55 4.32751L56.6076 2L58 2.67203Z" fill="#F9BA48"/>
<path fill-rule="evenodd" clip-rule="evenodd" d="M52.5 13.2502C51.7022 13.2502 51.0553 12.579 51.0553 11.7503C51.0553 10.9216 51.7022 10.2498 52.5 10.2498C53.2978 10.2498 53.9442 10.9216 53.9442 11.7503C53.9442 12.579 53.2978 13.2502 52.5 13.2502ZM52.5 5C48.9152 5 46 8.02786 46 11.7503C46 13.9992 47.0969 16.1093 48.8883 17.3564V20H56.1112V17.3564C57.9026 16.1093 59 13.9992 59 11.7503C59 8.02786 56.0843 5 52.5 5Z" fill="#F9BA48"/>
</svg>
