<svg width="33" height="25" viewBox="0 0 33 25" fill="none" xmlns="http://www.w3.org/2000/svg">
<path d="M11.86 0.629997L12.63 2.17C10.7633 3.43 9.24667 4.64333 8.08 5.81C6.02667 7.86333 5 9.73 5 11.41C5 12.4367 5.46667 12.95 6.4 12.95L7.94 12.81C9.24667 12.81 10.3433 13.16 11.23 13.86C12.49 14.84 13.12 16.3333 13.12 18.34C13.12 20.1133 12.5833 21.5133 11.51 22.54C10.4367 23.5667 9.06 24.08 7.38 24.08C5 24.08 3.20333 23.2867 1.99 21.7C0.823333 20.0667 0.24 18.2 0.24 16.1C0.24 12.32 1.71 8.91333 4.65 5.88C6.33 4.15333 8.73333 2.40333 11.86 0.629997ZM30.76 0.629997L31.53 2.17C29.6633 3.43 28.1467 4.64333 26.98 5.81C24.9267 7.86333 23.9 9.73 23.9 11.41C23.9 12.4367 24.3667 12.95 25.3 12.95L26.84 12.81C28.1467 12.81 29.2433 13.16 30.13 13.86C31.39 14.84 32.02 16.3333 32.02 18.34C32.02 20.1133 31.4833 21.5133 30.41 22.54C29.3367 23.5667 27.96 24.08 26.28 24.08C23.9 24.08 22.1033 23.2867 20.89 21.7C19.7233 20.0667 19.14 18.2 19.14 16.1C19.14 12.32 20.61 8.91333 23.55 5.88C25.23 4.15333 27.6333 2.40333 30.76 0.629997Z" fill="#F9BA48"/>
</svg>
