<svg width="114" height="84" viewBox="0 0 114 84" fill="none" xmlns="http://www.w3.org/2000/svg">
<path opacity="0.371745" d="M41.5 0.249989L44.25 5.74999C37.5833 10.25 32.1667 14.5833 28 18.75C20.6667 26.0833 17 32.75 17 38.75C17 42.4167 18.6667 44.25 22 44.25L27.5 43.75C32.1667 43.75 36.0833 45 39.25 47.5C43.75 51 46 56.3333 46 63.5C46 69.8333 44.0833 74.8333 40.25 78.5C36.4167 82.1667 31.5 84 25.5 84C17 84 10.5833 81.1667 6.25 75.5C2.08333 69.6667 3.7998e-07 63 3.7998e-07 55.5C3.7998e-07 42 5.25 29.8333 15.75 19C21.75 12.8333 30.3333 6.58332 41.5 0.249989ZM109 0.249989L111.75 5.74999C105.083 10.25 99.6667 14.5833 95.5 18.75C88.1667 26.0833 84.5 32.75 84.5 38.75C84.5 42.4167 86.1667 44.25 89.5 44.25L95 43.75C99.6667 43.75 103.583 45 106.75 47.5C111.25 51 113.5 56.3333 113.5 63.5C113.5 69.8333 111.583 74.8333 107.75 78.5C103.917 82.1667 99 84 93 84C84.5 84 78.0833 81.1667 73.75 75.5C69.5833 69.6667 67.5 63 67.5 55.5C67.5 42 72.75 29.8333 83.25 19C89.25 12.8333 97.8333 6.58332 109 0.249989Z" fill="white"/>
</svg>
